<?xml version="1.0" encoding="utf-8"?>
<!-- Generator: Adobe Illustrator 27.7.0, SVG Export Plug-In . SVG Version: 6.00 Build 0)  -->
<svg version="1.1" id="Layer_1" xmlns="http://www.w3.org/2000/svg" xmlns:xlink="http://www.w3.org/1999/xlink" x="0px" y="0px"
	 viewBox="0 0 56 56" style="enable-background:new 0 0 56 56;" xml:space="preserve">
<style type="text/css">
	.st0{fill:#005D8C;}
	.st1{fill:#005C8D;}
	.st2{fill:#005D8D;}
	.st3{fill:#005B8E;}
</style>
<g>
	<path class="st0" d="M0.96,30.62c0-1.48,0-2.95,0.02-4.45c0.04-0.16,0.05-0.31,0.08-0.45c0.1-0.72,0.17-1.45,0.32-2.16
		c0.25-1.16,0.51-2.33,0.85-3.47c0.24-0.83,0.57-1.65,0.92-2.44c0.44-1,0.91-1.98,1.44-2.93c0.64-1.13,1.38-2.2,2.19-3.22
		c0.75-0.95,1.54-1.85,2.42-2.68c0.52-0.49,1.04-0.99,1.59-1.45c0.67-0.55,1.36-1.09,2.08-1.58c0.69-0.47,1.4-0.91,2.13-1.31
		c0.85-0.47,1.71-0.94,2.6-1.3c1.14-0.46,2.31-0.86,3.49-1.2c0.96-0.28,1.96-0.46,2.94-0.64c0.65-0.12,1.31-0.16,1.97-0.24
		c0.04,0,0.06-0.06,0.1-0.09c1.48,0,2.95,0,4.45,0.02c0.08,0.04,0.14,0.06,0.2,0.07c0.36,0.04,0.72,0.04,1.08,0.1
		c0.82,0.14,1.64,0.29,2.46,0.45c1.25,0.25,2.48,0.62,3.67,1.07c1.16,0.44,2.3,0.93,3.38,1.55c0.59,0.34,1.19,0.65,1.75,1.03
		c0.8,0.54,1.58,1.12,2.35,1.71c0.91,0.69,1.75,1.46,2.52,2.29c0.47,0.5,0.95,1,1.38,1.53c0.56,0.68,1.1,1.38,1.6,2.1
		c0.47,0.68,0.9,1.38,1.3,2.11c0.47,0.86,0.93,1.73,1.31,2.62c0.49,1.14,0.92,2.3,1.21,3.51c0.23,0.97,0.44,1.95,0.62,2.93
		c0.12,0.64,0.16,1.3,0.24,1.95c0.01,0.04,0.06,0.08,0.09,0.12c0,1.48,0,2.95-0.02,4.45c-0.04,0.05-0.06,0.08-0.07,0.11
		c-0.03,0.31-0.05,0.62-0.1,0.92c-0.13,0.85-0.25,1.71-0.42,2.56c-0.26,1.3-0.61,2.58-1.11,3.8c-0.48,1.18-1.04,2.33-1.6,3.48
		c-0.29,0.58-0.64,1.14-0.99,1.69c-0.64,0.99-1.32,1.95-2.11,2.84c-0.55,0.62-1.1,1.25-1.67,1.85c-0.32,0.33-0.67,0.63-1.02,0.93
		c-0.51,0.44-1,0.89-1.54,1.3c-1.07,0.82-2.2,1.57-3.38,2.23c-1.1,0.62-2.23,1.16-3.4,1.62c-1.13,0.44-2.28,0.83-3.48,1.08
		c-0.73,0.15-1.47,0.31-2.21,0.44c-0.64,0.1-1.28,0.16-1.93,0.24c-0.04,0.01-0.08,0.06-0.12,0.09c-1.48,0-2.95,0-4.45-0.02
		c-0.16-0.04-0.31-0.06-0.45-0.08c-0.64-0.09-1.28-0.16-1.92-0.27c-0.77-0.14-1.56-0.27-2.31-0.49c-1.05-0.3-2.09-0.65-3.12-1.02
		c-1.28-0.46-2.49-1.07-3.66-1.75c-1.12-0.65-2.2-1.38-3.22-2.19c-0.96-0.77-1.89-1.56-2.73-2.47c-0.47-0.5-0.95-1-1.38-1.53
		c-0.55-0.67-1.08-1.35-1.58-2.06c-0.99-1.41-1.82-2.92-2.51-4.5c-0.54-1.23-1.02-2.49-1.34-3.8c-0.24-0.97-0.44-1.95-0.62-2.93
		c-0.11-0.63-0.16-1.28-0.24-1.92C1.04,30.7,0.99,30.66,0.96,30.62 M54.27,32.57c0.06-0.45,0.13-0.91,0.17-1.36
		c0.07-0.83,0.15-1.67,0.18-2.51c0.02-0.6-0.02-1.21-0.04-1.82c-0.01-0.23-0.02-0.47-0.05-0.7c-0.11-0.84-0.23-1.68-0.36-2.52
		c-0.18-1.16-0.47-2.29-0.85-3.4c-0.28-0.84-0.63-1.66-0.96-2.48c-0.43-1.08-0.99-2.09-1.61-3.07c-0.43-0.69-0.88-1.37-1.38-2.01
		c-0.65-0.84-1.32-1.66-2.04-2.44c-0.62-0.67-1.31-1.28-2-1.87c-0.64-0.55-1.32-1.07-2.01-1.56c-1.2-0.86-2.47-1.62-3.82-2.21
		c-0.97-0.42-1.96-0.81-2.95-1.17c-1.42-0.51-2.88-0.85-4.38-1.04c-0.79-0.1-1.58-0.21-2.37-0.26c-0.68-0.04-1.37-0.03-2.06-0.01
		c-0.73,0.02-1.46,0.07-2.19,0.14c-0.61,0.05-1.21,0.12-1.81,0.23c-1.34,0.25-2.67,0.58-3.96,1.04c-1.21,0.42-2.38,0.93-3.52,1.52
		c-1.08,0.56-2.12,1.2-3.12,1.9c-1.06,0.74-2.05,1.57-2.98,2.46c-0.53,0.51-1.04,1.04-1.51,1.6c-0.64,0.75-1.27,1.51-1.84,2.31
		c-0.99,1.4-1.83,2.9-2.53,4.47c-0.53,1.21-0.97,2.44-1.32,3.71c-0.48,1.76-0.76,3.55-0.87,5.37c-0.04,0.69-0.02,1.37,0,2.06
		c0.01,0.6,0.04,1.19,0.09,1.79c0.07,0.75,0.15,1.5,0.28,2.24c0.24,1.34,0.55,2.66,1.04,3.93c0.39,1.02,0.79,2.05,1.26,3.04
		c0.6,1.27,1.34,2.45,2.15,3.6c0.73,1.03,1.55,2,2.41,2.93c0.35,0.38,0.74,0.74,1.13,1.09c0.67,0.59,1.35,1.18,2.05,1.73
		c1.44,1.13,3,2.09,4.68,2.84c1.03,0.46,2.07,0.88,3.14,1.23c1,0.33,2.03,0.59,3.07,0.78c1.13,0.21,2.27,0.35,3.42,0.45
		c0.74,0.07,1.5,0.03,2.24,0.01c0.71-0.02,1.42-0.07,2.12-0.14c0.68-0.07,1.36-0.15,2.03-0.28c1.29-0.26,2.56-0.58,3.8-1.03
		c1.23-0.44,2.44-0.96,3.59-1.58c1-0.54,1.96-1.14,2.9-1.79c1.18-0.83,2.28-1.77,3.32-2.78c0.26-0.26,0.52-0.53,0.76-0.81
		c0.5-0.57,1.04-1.12,1.48-1.73c0.66-0.9,1.26-1.83,1.87-2.76c0.74-1.13,1.32-2.35,1.8-3.61c0.42-1.11,0.76-2.26,1.09-3.4
		C54.02,34.02,54.12,33.31,54.27,32.57z"/>
	<path class="st0" d="M38.05,16.26c0.16,0.13,0.32,0.25,0.47,0.38c0.76,0.68,1.45,1.42,2.07,2.24c0.62,0.82,1.16,1.68,1.61,2.6
		c0.56,1.15,0.97,2.36,1.23,3.62c0.12,0.6,0.19,1.22,0.23,1.83c0.05,0.76,0.09,1.53,0.04,2.3c-0.05,0.76-0.16,1.53-0.32,2.27
		c-0.19,0.82-0.41,1.64-0.73,2.41c-0.34,0.83-0.77,1.63-1.22,2.41c-0.71,1.23-1.64,2.3-2.68,3.25c-0.76,0.7-1.58,1.32-2.47,1.84
		c-0.94,0.56-1.92,1.04-2.96,1.38c-0.8,0.26-1.64,0.45-2.47,0.6c-0.7,0.12-1.42,0.15-2.14,0.19c-1.75,0.09-3.44-0.19-5.11-0.71
		c-0.93-0.29-1.82-0.68-2.67-1.14c-0.79-0.43-1.55-0.92-2.23-1.51c-0.54-0.46-1.08-0.93-1.57-1.44c-0.51-0.55-1-1.13-1.42-1.75
		c-0.51-0.76-0.97-1.56-1.37-2.38c-0.52-1.08-0.87-2.22-1.11-3.4c-0.27-1.34-0.33-2.69-0.26-4.04c0.05-1.1,0.25-2.19,0.56-3.26
		c0.28-0.98,0.65-1.92,1.12-2.82c0.48-0.93,1.04-1.81,1.72-2.61c0.4-0.47,0.79-0.94,1.23-1.36c0.57-0.53,1.17-1.04,1.81-1.49
		c0.65-0.46,1.34-0.88,2.05-1.25c1.22-0.63,2.52-1.07,3.87-1.32c0.62-0.12,1.25-0.19,1.88-0.23c0.66-0.05,1.34-0.07,2-0.04
		c1.07,0.05,2.14,0.23,3.18,0.51c0.83,0.23,1.64,0.53,2.43,0.89c1.12,0.51,2.14,1.18,3.12,1.92C37.98,16.18,38.01,16.21,38.05,16.26
		 M37.15,35.56c0.1,0.04,0.2,0.07,0.29,0.13c0.5,0.3,0.61,0.8,0.67,1.32c0.05,0.44-0.18,0.62-0.62,0.5
		c-0.06-0.02-0.12-0.05-0.19-0.07c-0.3-0.11-0.6-0.24-0.91-0.34c-0.37-0.12-0.73-0.14-1.02,0.18c-0.34,0.38-0.66,0.76-1,1.14
		c-0.41,0.45-0.82,0.89-1.24,1.33c-0.12,0.13-0.17,0.27-0.02,0.41c0.14,0.13,0.26,0.04,0.37-0.07c0.53-0.57,1.07-1.13,1.61-1.7
		c0.13-0.14,0.25-0.28,0.37-0.42c0.35-0.42,0.52-0.48,1.04-0.3c0.36,0.12,0.72,0.26,1.09,0.37c0.58,0.17,1.18-0.15,1.07-0.88
		c-0.05-0.36-0.16-0.72-0.26-1.07c-0.09-0.31-0.27-0.59-0.57-0.72c-0.27-0.12-0.57-0.17-0.85-0.26c-0.09-0.03-0.24-0.07-0.25-0.13
		c-0.04-0.15-0.03-0.32,0-0.47c0.01-0.05,0.12-0.11,0.18-0.12c0.2-0.02,0.4-0.02,0.59,0c0.61,0.06,0.9-0.43,0.9-0.91
		c-0.01-3.49-0.01-6.98,0-10.47c0-0.34,0.02-0.69,0.43-0.83c0.05-0.02,0.11-0.07,0.13-0.12c0.03-0.07,0.06-0.19,0.02-0.23
		c-0.05-0.06-0.17-0.11-0.24-0.09c-0.57,0.19-0.76,0.46-0.76,1.05c0,3.51,0,7.03,0,10.54c0,0.43-0.15,0.56-0.48,0.6
		c-0.13,0.01-0.27,0.04-0.4,0.04c-0.37,0-0.39-0.02-0.39-0.38c0-4.58,0-9.16,0-13.74c0-0.05,0-0.11,0-0.16
		c-0.01-0.14,0.05-0.19,0.19-0.19c0.21,0.01,0.41,0.01,0.62,0c0.45-0.01,0.74-0.31,0.64-0.7c-0.05-0.18-0.2-0.34-0.32-0.51
		c-0.22-0.31-0.47-0.59-0.88-0.65c-0.58-0.08-1.16-0.16-1.74-0.24c-0.33-0.04-0.62-0.12-0.71-0.51c-0.03-0.14-0.12-0.28-0.21-0.4
		c-0.05-0.06-0.16-0.08-0.25-0.11c-0.03,0.09-0.11,0.19-0.09,0.26c0.09,0.26,0.22,0.51,0.32,0.77c0.09,0.21,0.26,0.32,0.47,0.35
		c0.55,0.09,1.1,0.16,1.65,0.24c0.41,0.06,0.84,0.08,1.06,0.52c0.06,0.13,0.1,0.29,0.08,0.42c-0.01,0.06-0.22,0.11-0.33,0.11
		c-0.96,0.01-1.92,0-2.87,0.01c-0.09,0-0.19,0.01-0.26,0.05c-0.06,0.03-0.14,0.12-0.13,0.18c0,0.06,0.08,0.14,0.14,0.18
		c0.06,0.04,0.14,0.04,0.22,0.05c0.32,0,0.64,0.01,0.96,0c0.2-0.01,0.28,0.07,0.27,0.26c0,0.08,0,0.15,0,0.23
		c0,0.13-0.06,0.2-0.21,0.2c-0.24,0-0.49-0.01-0.72,0.05c-0.24,0.07-0.52,0.16-0.69,0.33c-0.49,0.51-0.17,1.47,0.52,1.61
		c0.31,0.06,0.63,0.06,0.94,0.1c0.06,0.01,0.15,0.08,0.16,0.14c0.02,0.13,0.02,0.27,0,0.41c-0.01,0.05-0.07,0.12-0.12,0.12
		c-0.18,0.03-0.36,0.04-0.54,0.05c-0.55,0.03-1.06-0.09-1.55-0.32c-0.14-0.07-0.25-0.04-0.31,0.11c-0.07,0.16,0.05,0.24,0.17,0.3
		c0.12,0.06,0.24,0.12,0.37,0.17c0.33,0.12,0.35,0.38,0.13,0.63c-0.38,0.43-0.72,0.9-1.25,1.17c-0.15,0.08-0.15,0.19-0.02,0.31
		c0.17,0.15,0.34,0.05,0.45-0.06c0.44-0.43,0.87-0.87,1.29-1.32c0.31-0.34,0.64-0.61,1.15-0.57c0.2,0.01,0.27,0.09,0.27,0.28
		c-0.01,0.46,0,0.93,0,1.39c0,0.27-0.03,0.3-0.31,0.3c-0.34,0-0.68,0-1.03,0c-0.15,0-0.25,0.07-0.26,0.22
		c0,0.16,0.12,0.19,0.26,0.19c0.3,0,0.59,0,0.89,0c0.44,0,0.46,0.01,0.45,0.46c0,0.02,0,0.05,0,0.07c-0.01,0.13-0.06,0.2-0.21,0.2
		c-0.33-0.01-0.67-0.01-1,0c-0.09,0-0.18,0.02-0.26,0.06c-0.16,0.09-0.17,0.25-0.01,0.33c0.07,0.04,0.17,0.06,0.26,0.06
		c0.33,0.01,0.65,0,0.98,0c0.06,0,0.17,0.01,0.17,0.03c0.03,0.18,0.07,0.37,0.05,0.55c-0.01,0.06-0.17,0.14-0.26,0.15
		c-0.34,0.02-0.68,0.01-1.03,0.01c-0.14,0-0.28,0-0.28,0.18c0,0.18,0.13,0.23,0.3,0.23c0.33,0,0.67,0.01,1,0
		c0.22-0.01,0.31,0.08,0.29,0.3c-0.01,0.06,0,0.12,0,0.18c0.01,0.19-0.08,0.26-0.26,0.26c-0.35-0.01-0.7,0.01-1.05,0
		c-0.17,0-0.28,0.05-0.28,0.21c0,0.16,0.11,0.21,0.27,0.2c0.28-0.01,0.56,0,0.84,0c0.53-0.01,0.48,0.03,0.48,0.52
		c0,0.01,0,0.02,0,0.02c-0.01,0.14-0.07,0.2-0.21,0.19c-0.34-0.01-0.68,0-1.03,0c-0.18,0-0.35,0.03-0.34,0.23
		c0,0.18,0.17,0.22,0.33,0.22c0.27,0,0.55,0,0.82,0c0.47,0,0.47,0,0.43,0.47c0,0.02,0,0.04,0,0.04c-0.06,0.06-0.12,0.15-0.2,0.16
		c-0.22,0.03-0.45,0.02-0.68,0.06c-0.56,0.1-0.84,0.2-0.93,0.75c-0.09,0.56,0.03,1.09,0.73,1.21c0.28,0.05,0.57,0.08,0.85,0.09
		c0.17,0.01,0.24,0.07,0.22,0.23c0,0.05,0,0.11,0,0.16c0,0.31-0.03,0.34-0.36,0.34c-0.33,0-0.67-0.01-1,0.01
		c-0.08,0-0.16,0.1-0.23,0.16c0.07,0.08,0.14,0.17,0.23,0.24c0.03,0.02,0.09,0.01,0.13,0.01c0.31,0,0.62,0,0.94,0
		c0.27,0,0.3,0.03,0.3,0.31c0,0.02,0,0.05,0,0.07c0,0.34-0.01,0.35-0.34,0.35c-0.32,0-0.64,0.01-0.96,0
		c-0.16-0.01-0.28,0.04-0.29,0.21c0,0.17,0.12,0.21,0.28,0.21c0.84-0.01,1.67,0,2.51,0C36.84,35.51,36.98,35.54,37.15,35.56
		 M26.29,30.62c-0.08,0.04-0.22,0.07-0.22,0.12c-0.01,0.08,0.06,0.17,0.11,0.26c0.02,0.04,0.07,0.06,0.11,0.08
		c0.26,0.1,0.32,0.31,0.32,0.57c-0.01,0.97,0,1.93,0,2.9c0,1.45-0.02,2.91,0.01,4.36c0.01,0.62,0.16,0.85,0.64,1.01
		c0.27,0.09,0.55,0.14,0.83,0.2c0.2,0.04,0.4,0.08,0.6,0.09c0.55,0.01,0.89-0.33,0.89-0.88c0-3.3,0-6.6,0-9.9
		c0-0.3,0.09-0.36,0.38-0.28c0.12,0.03,0.25,0.05,0.37,0.08c0.33,0.07,0.69-0.09,0.83-0.39c0.18-0.4,0.16-0.81-0.07-1.19
		c-0.26-0.42-0.71-0.56-1.16-0.67c-0.3-0.07-0.35-0.11-0.35-0.42c0-1.07,0-2.14,0-3.22c0-0.22-0.11-0.32-0.29-0.38
		c-0.08-0.03-0.16-0.03-0.24-0.06c-0.46-0.19-0.9-0.21-1.26,0.21c-0.05,0.06-0.11,0.1-0.18,0.14c-0.41,0.21-0.54,0.55-0.51,1
		c0.01,0.15-0.04,0.34-0.13,0.47c-0.07,0.1-0.23,0.18-0.36,0.2c-0.17,0.03-0.18-0.15-0.21-0.27c-0.02-0.07-0.02-0.15-0.02-0.22
		c0-0.58,0.01-1.16-0.01-1.73c-0.01-0.16-0.11-0.34-0.22-0.47c-0.1-0.11-0.26-0.17-0.4-0.24c-0.12-0.06-0.26-0.09-0.32,0.08
		c-0.05,0.14,0.01,0.24,0.15,0.3c0.29,0.11,0.4,0.33,0.39,0.64c-0.01,0.6-0.01,1.2,0,1.8c0,0.49,0.37,0.79,0.75,0.61
		c0.22-0.11,0.43-0.25,0.61-0.42c0.11-0.1,0.15-0.29,0.19-0.44c0.03-0.14-0.01-0.29,0.01-0.43c0.03-0.13,0.08-0.28,0.16-0.38
		c0.11-0.13,0.26-0.23,0.4-0.32c0.06-0.04,0.17-0.09,0.22-0.06c0.05,0.02,0.07,0.14,0.08,0.21c0.01,0.55,0,1.1,0,1.64
		c0,0.59,0,0.59-0.59,0.59c-0.24,0-0.47-0.01-0.71,0c-0.13,0.01-0.26,0.04-0.25,0.22c0.01,0.16,0.12,0.19,0.25,0.19
		c0.24,0,0.49,0,0.73,0c0.18,0,0.37,0.02,0.57,0.03c0,0.15,0,0.26,0,0.36c0,0.28-0.01,0.29-0.3,0.29c-0.34,0-0.68,0-1.03,0
		c-0.13,0-0.24,0.06-0.22,0.19c0.01,0.08,0.11,0.16,0.19,0.21c0.06,0.03,0.15,0.01,0.22,0.01c0.84,0.03,1.68,0.04,2.52,0.1
		c0.37,0.03,0.71,0.2,0.92,0.54c0.14,0.22,0.15,0.54,0.02,0.7c-0.16,0.2-0.38,0.16-0.56,0.08c-0.98-0.4-2-0.33-3.02-0.33
		c-0.14,0-0.29,0.01-0.29,0.2c0,0.19,0.13,0.21,0.28,0.21c0.33,0,0.67,0,1,0c0.19,0,0.27,0.05,0.27,0.26c-0.01,0.92,0,1.84,0,2.76
		c0,2.37,0,4.75-0.01,7.12c0,0.13-0.06,0.28-0.14,0.38c-0.14,0.17-0.59,0.22-0.81,0.12c-0.26-0.12-0.37-0.32-0.37-0.61
		c0-2.39,0-4.78,0-7.16c0-0.19-0.05-0.39-0.11-0.57C26.85,30.81,26.56,30.74,26.29,30.62 M21.35,32.04
		c-0.08,0.03-0.15,0.08-0.23,0.08c-0.36,0.01-0.73-0.01-1.09,0.01c-0.08,0-0.14,0.13-0.22,0.2c0.07,0.07,0.14,0.17,0.22,0.2
		c0.1,0.03,0.23,0,0.34,0.01c0.76,0.03,1.51,0.05,2.27,0.1c0.4,0.03,0.75,0.2,0.99,0.52c0.07,0.09,0.08,0.25,0.06,0.37
		c-0.03,0.14-0.15,0.22-0.31,0.21c-0.14-0.02-0.3,0-0.42-0.06c-0.94-0.43-1.93-0.29-2.91-0.3c-0.12,0-0.24,0.05-0.24,0.21
		c0.01,0.16,0.11,0.2,0.25,0.19c0.35,0,0.7,0.01,1.05,0c0.23-0.01,0.25,0.13,0.26,0.31c0.01,0.2-0.07,0.25-0.25,0.24
		c-0.3-0.01-0.61-0.01-0.91,0c-0.08,0-0.18,0-0.24,0.04c-0.07,0.04-0.14,0.13-0.14,0.2c-0.01,0.19,0.15,0.2,0.29,0.2
		c0.35,0,0.7,0.01,1.05,0c0.16,0,0.22,0.06,0.21,0.22c-0.01,0.14,0.05,0.32-0.19,0.33c-0.17,0-0.35-0.01-0.52,0
		c-0.29,0.02-0.59,0.06-0.82,0.27c-0.28,0.26-0.29,0.6-0.25,0.95c0.04,0.34,0.26,0.62,0.6,0.68c0.32,0.05,0.64,0.08,0.96,0.09
		c0.24,0.01,0.22,0.17,0.22,0.33c0.01,0.17-0.06,0.23-0.23,0.22c-0.24-0.01-0.47,0.01-0.71-0.01c-0.59-0.05-1.05,0.09-1.3,0.69
		c-0.07,0.16-0.14,0.3-0.06,0.46c0.09,0.17,0.25,0.22,0.44,0.22c0.43-0.01,0.86,0.02,1.29-0.01c0.65-0.03,1.21,0.24,1.79,0.48
		c0.41,0.17,0.82,0.33,1.24,0.46c0.38,0.12,0.68-0.13,0.67-0.53c0-0.18-0.04-0.36-0.04-0.54c-0.03-0.95-0.07-1.91-0.09-2.86
		c0-0.24,0.09-0.46,0.31-0.59c0.14-0.08,0.25-0.18,0.15-0.34c-0.1-0.16-0.26-0.12-0.4-0.04c-0.27,0.15-0.46,0.37-0.47,0.67
		c-0.03,0.47-0.02,0.93,0,1.4c0.02,0.63,0.07,1.25,0.1,1.88c0.02,0.33-0.08,0.43-0.41,0.41c-0.1-0.01-0.19-0.03-0.28-0.06
		c-0.44-0.18-0.88-0.35-1.31-0.54c-0.52-0.22-1.07-0.22-1.62-0.26c-0.22-0.01-0.44,0.03-0.65,0.04c-0.17,0.01-0.2-0.1-0.14-0.23
		c0.1-0.19,0.23-0.32,0.47-0.32c0.68,0.01,1.37,0,2.05,0c0.36,0,0.37,0,0.37-0.35c0-1.17,0-2.34,0-3.51c0-0.34,0.08-0.39,0.41-0.3
		c0.19,0.05,0.4,0.09,0.59,0.07c0.36-0.04,0.62-0.26,0.67-0.63c0.05-0.38-0.06-0.74-0.42-0.93c-0.31-0.17-0.66-0.28-0.99-0.41
		c-0.13-0.05-0.27-0.07-0.27-0.25c0-1.16,0-2.31,0-3.47c0-0.16,0.07-0.26,0.27-0.26c0.34,0.01,0.67,0.01,1-0.12
		c0.28-0.11,0.51,0.04,0.54,0.31c0.03,0.26,0.01,0.52,0,0.77c-0.02,0.54-0.06,1.07-0.07,1.61c0,0.07,0.12,0.2,0.18,0.2
		c0.09,0,0.18-0.09,0.26-0.16c0.03-0.03,0.01-0.12,0.01-0.18c0.04-0.67,0.08-1.34,0.14-2.01c0.04-0.44-0.12-0.84-0.47-0.96
		c-0.17-0.06-0.4-0.07-0.57-0.02c-0.49,0.13-0.97,0.19-1.47,0.06c-0.23-0.06-0.47-0.12-0.71-0.13c-0.52-0.02-1.05,0-1.57-0.01
		c-0.14,0-0.27,0.02-0.27,0.2c0,0.19,0.12,0.22,0.28,0.21c0.34,0,0.68,0.01,1.03,0c0.21-0.01,0.25,0.09,0.25,0.27
		c0,0.17-0.01,0.29-0.24,0.28c-0.21-0.01-0.42,0.02-0.63,0.04c-0.63,0.07-0.79,0.22-0.92,0.84c-0.11,0.55,0.19,1,0.74,1.08
		c0.24,0.04,0.48,0.04,0.72,0.05c0.28,0.01,0.33,0.06,0.33,0.31c0,0.23-0.05,0.28-0.33,0.28c-0.29,0-0.58-0.01-0.87,0.01
		c-0.07,0-0.17,0.08-0.19,0.15c-0.02,0.05,0.04,0.16,0.1,0.2c0.06,0.04,0.15,0.06,0.23,0.06c0.21,0.01,0.43,0,0.64,0
		C21.38,31.58,21.36,31.52,21.35,32.04 M20.88,17.66c-0.35-0.02-0.68,0.02-0.98,0.21c-0.32,0.21-0.43,0.72-0.28,1.19
		c0.07,0.24,0.22,0.42,0.47,0.47c0.35,0.06,0.7,0.09,1.05,0.14c0.08,0.01,0.19,0.05,0.21,0.1c0.1,0.26,0,0.4-0.28,0.4
		c-0.09,0-0.18,0-0.27,0c-0.77-0.02-1.35,0.36-1.83,0.92c-0.35,0.41-0.62,0.9-1.17,1.08c-0.06,0.02-0.13,0.19-0.1,0.23
		c0.05,0.08,0.19,0.19,0.25,0.16c0.23-0.09,0.46-0.19,0.64-0.34c0.21-0.18,0.39-0.42,0.55-0.66c0.49-0.72,1.15-1.05,2.02-1
		c0.2,0.01,0.22,0.11,0.21,0.26c-0.01,0.14,0.04,0.3-0.2,0.3c-0.26,0-0.51,0.01-0.77,0.05c-0.44,0.06-0.77,0.22-0.82,0.73
		c-0.04,0.33,0.03,0.62,0.22,0.84c-0.07,0.14-0.15,0.26-0.18,0.39c-0.17,0.62,0.07,1.1,0.69,1.18c0.26,0.03,0.53,0.05,0.79,0.05
		c0.21-0.01,0.28,0.06,0.27,0.27c0,0.2-0.03,0.32-0.27,0.33c-0.49,0.03-0.94-0.1-1.37-0.3c-0.15-0.07-0.29-0.06-0.34,0.09
		c-0.02,0.08,0.07,0.22,0.15,0.28c0.11,0.09,0.26,0.12,0.39,0.18c0.29,0.14,0.37,0.34,0.15,0.59c-0.25,0.28-0.57,0.5-0.85,0.75
		c-0.07,0.06-0.11,0.14-0.16,0.21c0.08,0.05,0.15,0.15,0.23,0.15c0.12,0,0.27-0.04,0.35-0.12c0.34-0.31,0.64-0.66,0.99-0.96
		c0.19-0.17,0.42-0.38,0.65-0.4c0.54-0.05,1.1-0.03,1.64,0.02c0.28,0.03,0.56,0.18,0.6,0.53c0.02,0.13,0.03,0.32-0.05,0.39
		c-0.09,0.08-0.28,0.1-0.41,0.07c-0.27-0.06-0.53-0.17-0.79-0.25c-0.11-0.03-0.24-0.06-0.33-0.03c-0.38,0.14-0.75,0.29-1.12,0.46
		c-0.14,0.07-0.13,0.27,0.02,0.33c0.06,0.02,0.16-0.02,0.23-0.05c0.57-0.28,1.13-0.41,1.75-0.11c0.22,0.11,0.51,0.13,0.77,0.13
		c0.34,0.01,0.58-0.29,0.53-0.63c-0.02-0.16-0.1-0.31-0.13-0.47c-0.11-0.55-0.62-0.87-1.13-0.86c-0.2,0.01-0.29-0.09-0.29-0.29
		c0-0.28,0.05-0.35,0.35-0.39c0.57-0.08,0.95-0.38,1.17-0.9c0.21-0.51,0.21-1.34-0.34-1.71c-0.28-0.19-0.63-0.32-0.96-0.43
		c-0.15-0.05-0.22-0.12-0.22-0.26c0-1.13,0-2.25,0-3.38c0-0.15,0.07-0.21,0.22-0.21c0.24,0,0.48-0.01,0.72-0.05
		c0.47-0.07,0.82-0.33,1.07-0.72c0.09-0.13,0.1-0.27-0.04-0.38c-0.13-0.1-0.24-0.03-0.33,0.07c-0.08,0.1-0.15,0.21-0.25,0.29
		c-0.39,0.29-0.85,0.33-1.32,0.27c-0.45-0.06-0.9-0.16-1.35-0.2c-0.4-0.04-0.81-0.02-1.21,0c-0.1,0.01-0.19,0.13-0.29,0.2
		c0.08,0.08,0.15,0.16,0.24,0.23c0.04,0.03,0.12,0.02,0.18,0.02c0.25,0,0.5,0,0.75,0c0.43,0,0.43,0,0.41,0.44
		c0,0.01-0.01,0.03-0.03,0.07C21.2,17.63,21.06,17.65,20.88,17.66 M31.92,18.3c-0.02-0.25-0.04-0.51-0.07-0.76
		c-0.04-0.39-0.28-0.63-0.63-0.65c-0.45-0.03-0.74,0.16-0.82,0.54c-0.03,0.17-0.05,0.34-0.05,0.52c-0.01,0.68,0,1.35,0,2.03
		c0,0.4-0.16,0.51-0.55,0.38c-0.21-0.07-0.4-0.16-0.61-0.23c-0.7-0.23-1.43-0.18-2.16-0.19c-0.13,0-0.25-0.07-0.38-0.11
		c0.09-0.13,0.17-0.27,0.29-0.38c0.05-0.05,0.17-0.05,0.26-0.05c0.7,0,1.4-0.01,2.1,0c0.23,0,0.28-0.07,0.28-0.29
		c-0.01-0.7-0.02-1.4,0-2.1c0.01-0.25-0.09-0.38-0.31-0.46c-0.09-0.03-0.19-0.07-0.28-0.08c-0.43-0.02-0.86-0.06-1.28-0.04
		c-0.69,0.02-1.02,0.16-1.14,0.9c-0.07,0.4,0.17,0.87,0.57,0.96c0.35,0.08,0.71,0.11,1.07,0.13c0.22,0.02,0.18,0.16,0.19,0.29
		c0,0.13,0.02,0.27-0.18,0.26c-0.25-0.01-0.5,0-0.75,0c-0.2,0-0.41-0.01-0.61,0.02c-0.35,0.06-0.49,0.35-0.66,0.63
		c-0.1,0.17-0.18,0.32-0.07,0.5c0.11,0.19,0.29,0.22,0.49,0.22c0.47,0,0.94-0.01,1.41,0c0.44,0.01,0.88,0.07,1.29,0.27
		c0.26,0.13,0.53,0.24,0.81,0.34c0.34,0.11,0.64-0.04,0.68-0.39c0.05-0.43,0.04-0.86,0.05-1.29c0.01-0.56,0-1.12,0.01-1.67
		c0-0.08,0.1-0.19,0.18-0.22c0.21-0.07,0.39,0.08,0.4,0.33c0.04,0.66,0.07,1.31,0.09,1.97c0.02,0.46,0.02,0.92,0.05,1.38
		c0.01,0.15,0.04,0.35,0.27,0.32c0.2-0.02,0.19-0.19,0.18-0.33c-0.01-0.33-0.03-0.66-0.04-1C31.97,19.49,31.96,18.92,31.92,18.3
		 M18.25,33.54c-0.13-0.21-0.28-0.23-0.35-0.03c-0.08,0.24-0.15,0.5-0.12,0.74c0.05,0.36,0.11,0.71-0.01,1.07
		c-0.02,0.06,0.07,0.17,0.11,0.25c0.07-0.04,0.19-0.06,0.22-0.12c0.13-0.27,0.19-0.56,0.13-0.87C18.17,34.24,18.09,33.9,18.25,33.54
		 M32.17,30.54c0.01-0.27,0.02-0.54,0.03-0.81c0.01-0.26,0.01-0.52,0-0.79c0-0.09-0.06-0.18-0.09-0.27
		c-0.09,0.05-0.21,0.09-0.25,0.17c-0.06,0.14-0.1,0.3-0.1,0.46c-0.02,0.47,0.21,0.94-0.03,1.4c-0.02,0.03,0.07,0.16,0.13,0.18
		c0.07,0.01,0.16-0.04,0.22-0.1C32.13,30.74,32.14,30.65,32.17,30.54 M32.18,26.15c0-0.02,0-0.05,0.01-0.07
		c0.06-0.13,0.06-0.28-0.09-0.32c-0.06-0.02-0.21,0.12-0.23,0.2c-0.05,0.24-0.12,0.51-0.07,0.75c0.06,0.34,0.08,0.66-0.02,1
		c-0.02,0.07,0.03,0.22,0.09,0.25c0.11,0.06,0.22-0.01,0.25-0.14c0.04-0.2,0.1-0.39,0.1-0.59C32.22,26.88,32.19,26.53,32.18,26.15
		 M19.12,35.11c0.01-0.16,0.02-0.31,0.02-0.47c0-0.34-0.01-0.68-0.02-1.02c0-0.08-0.06-0.16-0.09-0.23
		c-0.08,0.04-0.2,0.06-0.23,0.12c-0.12,0.24-0.18,0.49-0.12,0.76c0.04,0.2,0.07,0.4,0.07,0.6c0,0.15-0.07,0.29-0.07,0.44
		c0,0.08,0.07,0.17,0.11,0.25c0.07-0.04,0.17-0.06,0.22-0.12C19.07,35.36,19.09,35.25,19.12,35.11 M33.04,25.77
		c-0.16-0.06-0.22,0.06-0.27,0.17c-0.12,0.27-0.13,0.55-0.06,0.84c0.07,0.3,0.09,0.59-0.03,0.89c-0.05,0.12-0.06,0.25,0.08,0.3
		c0.16,0.06,0.25-0.07,0.27-0.19c0.04-0.31,0.07-0.62,0.08-0.94c0.01-0.2-0.02-0.4-0.03-0.6C33.08,26.09,33.07,25.94,33.04,25.77
		 M33.05,30.65c0.02-0.29,0.08-0.58,0.06-0.87c-0.01-0.28-0.06-0.54,0-0.82c0.02-0.08-0.06-0.19-0.1-0.29
		c-0.08,0.07-0.19,0.12-0.23,0.2c-0.13,0.27-0.13,0.55-0.06,0.84c0.08,0.31,0.07,0.61-0.04,0.91c-0.02,0.05-0.03,0.12,0,0.16
		c0.03,0.05,0.12,0.12,0.14,0.11C32.9,30.83,32.97,30.75,33.05,30.65z"/>
	<path class="st1" d="M42.64,19.57c-0.52-0.71-1.03-1.41-1.56-2.1c-0.28-0.36-0.59-0.69-0.91-1c-0.7-0.68-1.44-1.32-2.26-1.87
		c-0.75-0.51-1.52-0.98-2.33-1.37c-1.33-0.64-2.72-1.11-4.18-1.36c-0.62-0.11-1.25-0.18-1.88-0.23c-0.68-0.05-1.37-0.08-2.05-0.04
		c-1.31,0.07-2.6,0.28-3.86,0.66c-1.05,0.32-2.07,0.72-3.05,1.23c-1.02,0.54-2,1.16-2.88,1.92c-0.44,0.38-0.89,0.75-1.29,1.16
		c-0.68,0.69-1.32,1.41-1.83,2.23c-0.48,0.78-0.98,1.55-1.39,2.37c-0.66,1.31-1.11,2.69-1.35,4.14c-0.1,0.63-0.18,1.27-0.23,1.9
		c-0.05,0.67-0.09,1.35-0.04,2.02c0.07,0.91,0.2,1.82,0.38,2.72c0.25,1.24,0.68,2.42,1.22,3.57c0.56,1.18,1.23,2.29,2.06,3.29
		c0.49,0.58,0.98,1.17,1.52,1.7c1,0.97,2.1,1.83,3.34,2.48c0.78,0.41,1.6,0.75,2.41,1.13c0.04,0.02,0.08,0.04,0.13,0.07
		c-0.04,0.11-0.08,0.22-0.12,0.35c-2.64-0.95-4.91-2.44-6.79-4.49c-3.02-3.31-4.59-7.24-4.57-11.72c0.02-4.89,1.84-9.07,5.39-12.44
		c2.85-2.71,6.27-4.27,10.19-4.61c4.39-0.39,8.41,0.71,11.93,3.37c3.38,2.55,5.56,5.91,6.46,10.06c0.89,4.11,0.35,8.06-1.64,11.77
		c-2.07,3.85-5.19,6.53-9.31,8.08c-0.05-0.13-0.09-0.24-0.13-0.35c4.9-1.93,8.37-5.3,10.12-10.29
		C45.93,28.93,45.34,24.13,42.64,19.57z"/>
	<path class="st0" d="M11.55,15.3c-0.14-0.3-0.26-0.61-0.44-0.87c-0.41-0.58-0.87-1.13-1.28-1.72c-0.16-0.23-0.39-0.11-0.57-0.2
		c-0.04-0.02-0.1,0-0.13-0.03C9.08,12.45,9.02,12.4,9,12.35c-0.01-0.04,0.05-0.12,0.09-0.14c0.33-0.13,0.67-0.3,1.02-0.15
		c0.2,0.09,0.37,0.28,0.52,0.45c0.29,0.32,0.55,0.67,0.87,1.06c0.04-0.14,0.08-0.22,0.09-0.31c0.02-0.28,0.03-0.56,0.05-0.84
		c0.02-0.26,0.23-0.47,0.43-0.41c0.1,0.03,0.2,0.1,0.28,0.18c0.6,0.66,1.21,1.31,1.79,1.98c0.22,0.25,0.41,0.53,0.56,0.83
		c0.13,0.27-0.04,0.49-0.34,0.51c-0.27,0.02-0.54,0.07-0.81,0.09c-0.06,0.01-0.12-0.03-0.17-0.05c0.03-0.06,0.05-0.13,0.1-0.16
		c0.14-0.1,0.3-0.18,0.44-0.27c0.16-0.1,0.14-0.21,0.02-0.35c-0.27-0.31-0.52-0.63-0.77-0.94c-0.35-0.43-0.69-0.87-1.02-1.28
		c0.02,0.65,0.04,1.32,0.06,2.02c0.21-0.12,0.35-0.23,0.52-0.28c0.12-0.04,0.3-0.05,0.4,0.01c0.14,0.09,0.16,0.29,0.06,0.42
		c-0.08,0.11-0.22,0.18-0.35,0.23c-0.14,0.05-0.29,0.05-0.44,0.07c0.17,0.5,0.36,0.97,0.49,1.45c0.07,0.25,0.08,0.52,0.06,0.78
		c-0.01,0.15,0.03,0.25,0.12,0.36c0.06,0.08,0.07,0.2,0.1,0.3c-0.1,0.02-0.21,0.08-0.3,0.06c-0.73-0.08-1.29-0.5-1.86-0.92
		c-0.13-0.09-0.26-0.18-0.37-0.29c-0.07-0.07-0.09-0.18-0.13-0.27c0.1-0.02,0.2-0.07,0.29-0.05c0.25,0.05,0.5,0.12,0.74,0.18
		c0.14,0.04,0.18,0.02,0.15-0.15C11.63,16.1,11.59,15.7,11.55,15.3 M11.98,16.74c0.17,0.11,0.34,0.21,0.51,0.32
		c0.01-0.01,0.02-0.03,0.03-0.04c-0.13-0.31-0.27-0.63-0.43-1C11.99,16.28,11.86,16.47,11.98,16.74z"/>
	<path class="st2" d="M45.33,15.82c0.29,0.16,0.57,0.33,0.86,0.46c0.2,0.09,0.42,0.14,0.64,0.22c0.07-0.21-0.01-0.29-0.18-0.3
		c-0.23-0.01-0.47-0.01-0.57-0.3c-0.02-0.05-0.11-0.09-0.18-0.12c-0.24-0.1-0.49-0.19-0.73-0.3c-0.22-0.09-0.32-0.42-0.17-0.62
		c0.03-0.04,0.15-0.07,0.2-0.04c0.18,0.11,0.34,0.25,0.51,0.37c0.11,0.08,0.21,0.17,0.33,0.23c0.04,0.02,0.17,0,0.18-0.03
		c0.02-0.07,0.03-0.18-0.01-0.24c-0.04-0.06-0.14-0.08-0.21-0.11c-0.14-0.04-0.27-0.09-0.21-0.25c0.03-0.06,0.17-0.09,0.27-0.11
		c0.07-0.01,0.18,0.09,0.21-0.07c0.03-0.15-0.07-0.21-0.2-0.21c-0.24,0.01-0.48,0.03-0.72,0.04c-0.09,0-0.18-0.03-0.26-0.04
		c-0.16-0.03-0.16-0.16-0.13-0.27c0.02-0.07,0.11-0.15,0.18-0.18c0.19-0.08,0.41-0.1,0.58-0.2c0.12-0.07,0.18-0.23,0.29-0.33
		c0.05-0.05,0.17-0.1,0.2-0.08c0.06,0.04,0.12,0.16,0.1,0.21c-0.06,0.14-0.15,0.28-0.26,0.39c-0.1,0.1-0.25,0.15-0.36,0.24
		c0.73-0.15,1.18-0.65,1.57-1.28c0.16,0.29,0.25,0.52,0.2,0.81c-0.02,0.15-0.1,0.2-0.22,0.24c-0.22,0.08-0.44,0.18-0.66,0.27
		c0,0.03,0,0.06,0,0.09c0.13,0.02,0.27,0.07,0.4,0.05c0.08-0.02,0.13-0.15,0.23-0.28c0.05,0.03,0.17,0.06,0.2,0.13
		c0.12,0.36,0.41,0.3,0.66,0.26c0.3-0.05,0.59-0.16,0.88-0.23c0.07-0.02,0.17-0.03,0.21,0.01c0.04,0.03,0.04,0.14,0.02,0.2
		c-0.06,0.15-0.13,0.31-0.24,0.43c-0.07,0.07-0.23,0.1-0.34,0.09c-0.18-0.02-0.36-0.1-0.54-0.14c-0.23-0.06-0.31,0-0.31,0.16
		c0.29,0.08,0.57,0.16,0.84,0.25c0.21,0.07,0.37,0.2,0.46,0.4c0.06,0.13,0,0.19-0.1,0.22c-0.08,0.03-0.18,0.05-0.26,0.05
		c-0.45,0.02-0.89,0.03-1.34,0.05c-0.08,0-0.17,0.03-0.25,0.05c-0.01,0.02-0.01,0.05-0.02,0.07c0.11,0.05,0.23,0.09,0.32,0.16
		c0.13,0.09,0.27,0.19,0.34,0.32c0.09,0.16-0.02,0.31-0.21,0.31c-0.44-0.01-0.89-0.02-1.28-0.29c-0.1-0.07-0.19-0.07-0.3,0.02
		c-0.09,0.07-0.24,0.09-0.36,0.1c-0.16,0.02-0.31,0-0.47,0c-0.01,0.02-0.03,0.04-0.04,0.06c0.07,0.07,0.12,0.16,0.2,0.21
		c0.14,0.09,0.3,0.15,0.43,0.25c0.11,0.08,0.21,0.21,0.09,0.35c-0.11,0.14-0.27,0.17-0.42,0.07c-0.1-0.07-0.19-0.18-0.28-0.26
		c-0.08-0.07-0.16-0.13-0.25-0.2c-0.12-0.1-0.23-0.09-0.33,0.04c-0.1,0.12-0.23,0.21-0.32,0.33c-0.24,0.32-0.58,0.31-0.93,0.28
		c-0.11-0.01-0.22-0.06-0.21-0.22c0.02-0.29,0.03-0.59,0.05-0.88c0-0.04,0.06-0.12,0.08-0.11c0.05,0.01,0.1,0.05,0.13,0.09
		c0.09,0.12,0.14,0.27,0.25,0.37c0.06,0.05,0.22,0.06,0.3,0.02c0.12-0.06,0.23-0.17,0.3-0.29c0.03-0.04-0.05-0.2-0.11-0.24
		c-0.14-0.08-0.3-0.13-0.46-0.19c-0.25-0.1-0.34-0.21-0.31-0.48c0.02-0.16,0.07-0.32,0.1-0.48c0.25,0.2,0.48,0.38,0.71,0.56
		c0.12,0.1,0.23,0.22,0.36,0.3c0.06,0.04,0.16,0.04,0.24,0.04c0.14-0.01,0.28-0.04,0.43-0.07c-0.01-0.19-0.27-0.33-0.09-0.56
		C45.15,15.73,45.23,15.77,45.33,15.82 M47.46,15.54c-0.02,0.01-0.05,0.01-0.06,0.02c-0.05,0.03-0.1,0.07-0.15,0.1
		c0.06,0.01,0.12,0.04,0.18,0.03c0.12-0.01,0.24-0.01,0.35-0.05c0.12-0.05,0.32,0,0.34-0.23c-0.12-0.06-0.24-0.12-0.32-0.16
		C47.68,15.36,47.58,15.44,47.46,15.54 M47.24,15.33c0.07-0.06,0.15-0.11,0.22-0.17c-0.15-0.03-0.28,0.03-0.38-0.01
		c-0.22-0.07-0.3,0.01-0.34,0.2C46.91,15.46,47.06,15.44,47.24,15.33 M46.63,14.51c-0.27,0.13-0.03,0.22,0.03,0.31
		c0.03,0.04,0.12,0.07,0.16,0.05c0.06-0.03,0.11-0.1,0.13-0.16c0.01-0.04-0.07-0.1-0.12-0.13C46.79,14.54,46.72,14.53,46.63,14.51
		 M46.69,15.57c-0.08,0.01-0.15,0.03-0.23,0.04c0,0.02,0.01,0.04,0.01,0.06c0.13,0.05,0.24,0.19,0.42,0.02
		C46.82,15.64,46.77,15.61,46.69,15.57z"/>
	<path class="st0" d="M20.96,10.52c0.16,0.22,0.26,0.46,0.15,0.73c-0.15,0.36-0.28,0.74-0.62,0.97c-0.06,0.04-0.13,0.08-0.2,0.09
		c-0.06,0.01-0.14-0.02-0.18-0.06c-0.02-0.02,0.02-0.11,0.04-0.16c0.16-0.33,0.33-0.65,0.48-0.98c0.04-0.08,0.04-0.18,0.04-0.26
		c0-0.18-0.11-0.23-0.27-0.21c-0.01,0-0.03,0.01-0.04,0.02c-0.54,0.13-0.71-0.03-0.59-0.59c0.04-0.16,0.08-0.32,0.11-0.49
		c-0.29,0.2-0.44,0.59-0.83,0.71c-0.06-0.43,0.42-0.46,0.49-0.78c-0.07-0.01-0.14-0.02-0.17-0.03c0.36-0.62,0.72-1.25,1.09-1.89
		c0.02-0.04,0.02-0.06,0.02-0.08c-0.02,0.01-0.04,0.02-0.06,0.03c-0.49,0.43-0.81,0.98-1.13,1.54c-0.23,0.41-0.44,0.84-0.66,1.26
		c-0.1,0.19-0.55,0.31-0.7,0.16c-0.06-0.06-0.1-0.22-0.06-0.3c0.1-0.22,0.22-0.43,0.37-0.61c0.23-0.27,0.48-0.52,0.73-0.78
		c0.19-0.2,0.19-0.32-0.02-0.5c-0.03-0.02-0.08-0.05-0.08-0.08c0.01-0.56-0.35-1.01-0.47-1.53c-0.05-0.23-0.15-0.44-0.23-0.66
		c-0.08-0.24-0.18-0.28-0.41-0.18c-0.09,0.04-0.19,0.08-0.29,0.13c0-0.19,0.21-0.5,0.38-0.56c0.38-0.12,0.74-0.09,0.94,0.33
		c0.08,0.17,0.14,0.36,0.21,0.55c0.03,0.07,0.06,0.13,0.1,0.23c0.19-0.1,0.37-0.19,0.56-0.29c-0.01,0.12-0.02,0.23-0.03,0.34
		c0.03,0.01,0.05,0.02,0.08,0.02c0.12-0.34,0.26-0.67,0.37-1.01c0.04-0.13,0.25-0.27,0.43-0.27c0.17,0.01,0.15,0.13,0.17,0.24
		c0.06,0.36-0.16,0.61-0.33,0.88c-0.27,0.42-0.56,0.83-0.86,1.24c-0.12,0.17-0.18,0.33-0.05,0.54c0.16-0.18,0.31-0.37,0.47-0.54
		c0.2-0.21,0.4-0.41,0.63-0.59c0.09-0.07,0.24-0.06,0.37-0.08c0.02,0.14,0.09,0.29,0.05,0.42c-0.17,0.54-0.49,0.99-0.86,1.42
		c-0.06,0.06-0.12,0.12-0.17,0.18c-0.01,0.01-0.01,0.03-0.01,0.05c0.01,0.01,0.02,0.02,0.03,0.02c0.34-0.04,0.41,0.04,0.32,0.39
		c-0.08,0.29-0.17,0.57-0.25,0.85c0.38,0.13,0.52,0.03,0.53-0.33c0.01-0.27,0.05-0.54,0.1-0.8C20.66,9.1,20.68,8.94,20.88,9
		c0.2,0.06,0.3,0.21,0.23,0.39c-0.08,0.2-0.18,0.4-0.27,0.6c-0.03,0.07-0.06,0.15-0.07,0.25c0.19-0.21,0.41-0.27,0.65-0.14
		c0.11,0.06,0.22,0.16,0.3,0.27c0.04,0.05,0.05,0.18,0.01,0.22c-0.05,0.06-0.16,0.1-0.23,0.08c-0.16-0.04-0.31-0.11-0.49-0.18
		c-0.04-0.01-0.06-0.02-0.08-0.02C20.94,10.48,20.95,10.5,20.96,10.52 M19.38,7.43c0.05-0.12,0.11-0.24,0.18-0.38
		C19.41,7.02,19.3,7,19.15,6.97c0.03,0.18,0.05,0.33,0.07,0.47C19.23,7.46,19.31,7.45,19.38,7.43 M19.61,9.45
		c-0.02,0-0.03,0.01-0.05,0.01C19.58,9.46,19.59,9.47,19.61,9.45z"/>
	<path class="st2" d="M28.78,7.24c0.04-0.08,0.07-0.14,0.09-0.21C28.86,7.01,28.85,7,28.83,6.98c-0.32,0.19-0.66,0.35-0.95,0.58
		c-0.36,0.29-0.67,0.31-1-0.01c-0.1-0.1-0.07-0.23,0.09-0.3c0.5-0.24,1.01-0.47,1.51-0.71c0.02-0.01,0.04-0.01,0.06-0.02
		c0.62-0.24,0.68-0.35,0.7-1.02c0.01-0.39,0.04-0.78,0.1-1.17c0.02-0.1,0.17-0.18,0.26-0.27c0.09,0.1,0.24,0.2,0.27,0.31
		c0.05,0.23,0.05,0.48,0.05,0.72c0,0.24-0.02,0.48-0.04,0.71c0.35-0.01,0.28-0.28,0.27-0.51c0.02-0.01,0.04-0.02,0.06-0.03
		c0.12,0.1,0.29,0.18,0.34,0.3C30.63,5.76,30.48,5.9,30.31,6c-0.62,0.33-0.88,0.93-1.21,1.5c-0.19,0.32-0.5,0.57-0.76,0.86
		c-0.08,0.09-0.16,0.17-0.24,0.25c0.02,0.02,0.04,0.05,0.06,0.07c0.09-0.07,0.2-0.13,0.27-0.21c0.39-0.44,0.87-0.76,1.39-1.01
		c0.1-0.05,0.21-0.05,0.36-0.09c-0.09,0.64-0.6,0.97-0.88,1.49c0.18-0.07,0.33-0.11,0.47-0.17c0.21-0.09,0.55,0.01,0.64,0.22
		c0.02,0.05-0.01,0.14-0.05,0.18c-0.42,0.35-0.88,0.61-1.46,0.55c-0.2-0.02-0.28-0.22-0.16-0.47c0.14-0.28,0.3-0.55,0.46-0.82
		c0.03-0.06,0.07-0.12,0.1-0.18c-0.02-0.01-0.03-0.03-0.05-0.04c-0.19,0.16-0.37,0.34-0.58,0.47c-0.3,0.17-0.38,0.41-0.34,0.72
		c0.01,0.07,0.02,0.15-0.01,0.2c-0.05,0.08-0.13,0.18-0.22,0.2c-0.06,0.01-0.19-0.07-0.22-0.14c-0.07-0.14-0.1-0.3-0.14-0.45
		c-0.01-0.03,0.01-0.07,0-0.09c-0.22-0.39,0.13-0.57,0.31-0.82C28.29,7.89,28.53,7.57,28.78,7.24 M29.34,8.08
		c0.01,0.01,0.02,0.02,0.02,0.03C29.36,8.09,29.36,8.08,29.34,8.08z"/>
	<path class="st0" d="M13.78,43.85c-0.52,0.23-1.05,0.45-1.56,0.7c-0.18,0.09-0.29,0.09-0.39-0.09c0.28-0.61,0.56-1.23,0.85-1.84
		c-0.02-0.01-0.04-0.03-0.07-0.04c-0.38,0.5-1.05,0.71-1.29,1.32c-0.17-0.17-0.37-0.37-0.59-0.59c0.4,0.17,0.55-0.19,0.78-0.36
		c0.44-0.33,0.85-0.7,1.26-1.07c0.11-0.1,0.16-0.25,0.26-0.42c0.05,0.04,0.14,0.11,0.22,0.2c0.41,0.42,0.38,0.26,0.13,0.79
		c-0.2,0.43-0.39,0.86-0.61,1.34c0.2-0.08,0.35-0.14,0.5-0.21c0.34-0.16,0.68-0.32,1.02-0.49c0.18-0.09,0.33-0.11,0.47,0.08
		c0.11,0.15,0.26,0.26,0.39,0.42c-0.45-0.02-0.56,0.37-0.78,0.61c-0.34,0.35-0.63,0.75-0.95,1.11c-0.19,0.21-0.2,0.24-0.16,0.5
		c-0.15-0.01-0.45-0.28-0.74-0.64c0.52-0.07,0.64-0.59,0.98-0.87c0.12-0.1,0.2-0.24,0.31-0.39c0.02-0.04,0.03-0.05,0.03-0.07
		C13.82,43.83,13.8,43.84,13.78,43.85z"/>
	<path class="st0" d="M38.98,9.53c0.14,0.02,0.28,0.06,0.42,0.04c0.14-0.02,0.28-0.1,0.44-0.18c0.08-0.08,0.13-0.15,0.19-0.22
		c0.01,0,0.02,0,0.05,0C40.1,9.19,40.1,9.2,40.11,9.2c0.04,0.06,0.08,0.13,0.12,0.19c0.18,0.34-0.03,0.66-0.38,0.6
		c-0.35-0.06-0.71-0.06-1.07-0.09c-0.18-0.01-0.35-0.02-0.43,0.22c0.06,0.12,0.11,0.2,0.17,0.28c0.03,0.12,0.06,0.24,0.1,0.36
		c0.06,0.17,0.13,0.33,0.22,0.52c0.08,0.06,0.14,0.09,0.2,0.12c0.13,0.08,0.37,0.02,0.35,0.31c-0.05,0.05-0.08,0.07-0.12,0.1
		c-0.19,0.06-0.37,0.13-0.59,0.18c-0.13-0.02-0.23-0.03-0.33-0.04c-0.24-0.07-0.15-0.31-0.22-0.47c-0.02-0.05,0-0.12,0.01-0.21
		c0.12-0.13,0.12-0.23,0.02-0.33c0.02-0.2,0.04-0.4,0.06-0.68c-0.13,0.09-0.22,0.14-0.29,0.2c-0.44,0.37-0.93,0.57-1.51,0.56
		c-0.36-0.01-0.63-0.29-0.64-0.7c0.36,0.11,0.69,0.29,1.08,0.16c0.36-0.12,0.67-0.29,0.92-0.6c-0.37,0-0.71-0.03-1.03,0.01
		c-0.21,0.03-0.37,0.01-0.47-0.16c-0.04-0.07-0.03-0.23,0.02-0.29c0.13-0.14,0.32-0.3,0.52-0.18c0.44,0.26,0.9,0.17,1.36,0.1
		c0.11-0.02,0.21-0.11,0.34-0.17c0.05-0.05,0.07-0.1,0.09-0.14c0.17-0.25,0.33-0.5,0.52-0.76c0.17-0.07,0.26-0.16,0.21-0.33
		c0.06-0.11,0.12-0.22,0.19-0.36c0.02-0.03,0.03-0.05,0.04-0.06c0.05-0.13,0.1-0.25,0.17-0.44c0.08,0.11,0.14,0.19,0.2,0.3
		c0.02,0.05,0.03,0.07,0.05,0.1c0.16,0.19,0.14,0.38,0,0.59c-0.05,0.06-0.07,0.1-0.09,0.14c-0.12,0.15-0.23,0.32-0.35,0.46
		c-0.15,0.17-0.32,0.33-0.51,0.5c-0.07,0.05-0.1,0.09-0.14,0.14c0,0.02,0,0.04,0,0.08C38.92,9.48,38.95,9.51,38.98,9.53z"/>
	<path class="st0" d="M41.56,45.47c-0.23-0.33-0.45-0.67-0.69-1c-0.04-0.05-0.13-0.06-0.2-0.09c-0.05-0.02-0.1-0.02-0.21-0.04
		c0.28-0.19,0.51-0.35,0.74-0.51c0.02,0.01,0.04,0.01,0.06,0.02c-0.13,0.27,0.05,0.43,0.18,0.61c0.37,0.54,0.75,1.07,1.14,1.59
		c0.08,0.1,0.22,0.15,0.36,0.23c-0.22,0.15-0.45,0.31-0.68,0.48c-0.02-0.15-0.02-0.28-0.06-0.4c-0.09-0.27-0.36-0.22-0.55-0.27
		c-0.54-0.13-1.09-0.22-1.63-0.33c-0.02,0-0.04,0.01-0.09,0.02c0.27,0.39,0.54,0.77,0.8,1.15c0.03,0.04,0.06,0.08,0.09,0.13
		c0.11,0.18,0.22,0.35,0.49,0.29c0,0.02,0,0.04,0,0.06c-0.23,0.16-0.46,0.33-0.73,0.51c0.12-0.54-0.31-0.78-0.51-1.12
		c-0.2-0.35-0.47-0.66-0.7-0.99c-0.18-0.26-0.22-0.28-0.51-0.25c0.07-0.21,0.47-0.48,0.68-0.44c0.59,0.11,1.18,0.23,1.77,0.35
		c0.06,0.01,0.12,0.01,0.2,0.03c0.04,0.01,0.06,0.02,0.08,0.02C41.58,45.51,41.57,45.49,41.56,45.47z"/>
	<path class="st0" d="M7.64,34.1c0.29-0.07,0.58-0.12,0.85-0.21c0.12-0.04,0.21-0.16,0.34-0.27c0.07,0.27,0.14,0.53,0.2,0.79
		C9,34.43,8.98,34.45,8.98,34.45c-0.22-0.19-0.46-0.09-0.69-0.03c-0.56,0.14-1.12,0.27-1.68,0.42c-0.17,0.05-0.31,0.16-0.49,0.25
		c-0.05-0.21-0.12-0.47-0.2-0.79c0.1,0.05,0.14,0.07,0.18,0.1c0.19,0.1,0.37,0.06,0.49-0.12c0.36-0.57,0.72-1.14,1.11-1.76
		c-0.29,0.07-0.54,0.13-0.78,0.19c-0.2,0.05-0.41,0.11-0.61,0.16c-0.24,0.06-0.52,0.06-0.65,0.36c-0.07-0.28-0.14-0.56-0.22-0.9
		c0.46,0.35,0.83,0.03,1.21-0.03c0.42-0.06,0.83-0.2,1.25-0.3c0.21-0.05,0.37-0.14,0.35-0.4c0.02,0,0.04-0.01,0.06-0.01
		c0.03,0.07,0.05,0.14,0.09,0.21c0.18,0.36,0.06,0.66-0.15,0.97c-0.32,0.45-0.6,0.93-0.92,1.44C7.44,34.16,7.53,34.13,7.64,34.1z"/>
	<path class="st1" d="M6.71,30.9c0.38-0.03,0.77-0.05,1.15-0.1c0.11-0.02,0.21-0.13,0.34-0.22c0.03,0.29,0.06,0.57,0.09,0.83
		c-0.17-0.05-0.35-0.15-0.51-0.14c-0.58,0.04-1.15,0.11-1.73,0.17c-0.02,0-0.03,0-0.05,0c-0.26-0.01-0.53-0.04-0.64,0.32
		c-0.02-0.02-0.04-0.04-0.06-0.06c-0.02-0.28-0.04-0.55-0.07-0.86c0.07,0.03,0.1,0.04,0.12,0.05c0.18,0.18,0.32,0.2,0.49,0.01
		c0.38-0.41,0.75-0.84,1.12-1.27c0.09-0.1,0.17-0.2,0.27-0.33c-0.63,0.06-1.23,0.11-1.82,0.19c-0.1,0.01-0.18,0.13-0.3,0.23
		c-0.03-0.3-0.07-0.58-0.11-0.92c0.39,0.41,0.79,0.16,1.18,0.14c0.39-0.01,0.78-0.07,1.17-0.09c0.25-0.01,0.49-0.04,0.55-0.34
		c0-0.01,0.04-0.01,0.09-0.03c0.03,0.38,0.17,0.73-0.17,1.06c-0.39,0.38-0.73,0.8-1.08,1.21c-0.02,0.03-0.04,0.06-0.07,0.12
		c-0.02,0.04-0.03,0.05-0.03,0.07C6.67,30.92,6.69,30.91,6.71,30.9z"/>
	<path class="st0" d="M19.66,47.73c0.04-0.09,0.07-0.17,0.14-0.27c0.05-0.07,0.07-0.13,0.09-0.18c0.04-0.18,0.08-0.36,0.12-0.57
		c0.02-0.05,0.04-0.08,0.06-0.11c0.2,0.1,0.41,0.2,0.62,0.32c0,0.04-0.01,0.06-0.03,0.09c-0.16,0.05-0.25,0.17-0.32,0.32
		c-0.29,0.61-0.6,1.22-0.89,1.84c-0.05,0.12-0.03,0.27-0.04,0.45c-0.24-0.11-0.5-0.23-0.73-0.34c0.13-0.12,0.28-0.19,0.33-0.31
		c0.05-0.13,0.01-0.3-0.03-0.44c-0.15-0.52-0.31-1.03-0.47-1.55c-0.02-0.07-0.05-0.14-0.1-0.25c-0.23,0.49-0.45,0.93-0.66,1.38
		c-0.09,0.19-0.25,0.37-0.07,0.61c-0.02,0.01-0.03,0.02-0.05,0.03c-0.25-0.12-0.5-0.24-0.75-0.35c0.01-0.03,0.02-0.07,0.02-0.07
		c0.28-0.01,0.33-0.24,0.43-0.43c0.26-0.51,0.52-1.01,0.76-1.52c0.18-0.4,0.19-0.32-0.04-0.69c0.08,0.01,0.13,0,0.17,0.02
		c0.36,0.13,0.61,0.33,0.71,0.74c0.12,0.53,0.31,1.04,0.47,1.55c0.01,0.03,0.03,0.04,0.07,0.08c0.04-0.08,0.08-0.15,0.14-0.24
		C19.64,47.79,19.65,47.76,19.66,47.73z"/>
	<path class="st0" d="M48.09,38.85c0.13,0.08,0.24,0.17,0.37,0.2c0.12,0.03,0.26,0.01,0.42,0.01c-0.14,0.29-0.29,0.58-0.44,0.88
		c-0.05-0.41-0.43-0.43-0.67-0.57c-0.48-0.29-0.99-0.54-1.5-0.78c-0.12-0.06-0.28-0.03-0.45-0.05c0-0.01,0.01-0.07,0.03-0.11
		c0.15-0.31,0.3-0.63,0.47-0.93c0.18-0.32,0.42-0.59,0.78-0.72c0.48-0.17,0.95,0.17,0.96,0.68c0,0.13,0,0.26,0,0.38
		c0.34,0.1,0.74,0,1.64-0.38c-0.12,0.24-0.22,0.43-0.3,0.62c-0.11,0.25-0.34,0.2-0.54,0.21c-0.28,0.02-0.57,0.05-0.85,0.07
		c-0.18,0.01-0.26,0.12-0.29,0.3C47.83,38.72,47.95,38.78,48.09,38.85 M46.93,38.25c0.13,0.08,0.27,0.16,0.45,0.26
		c0.09-0.26,0.22-0.48,0.25-0.71c0.01-0.12-0.11-0.3-0.22-0.38c-0.09-0.07-0.29-0.09-0.39-0.04c-0.26,0.12-0.43,0.35-0.53,0.64
		C46.62,38.09,46.76,38.16,46.93,38.25z"/>
	<path class="st0" d="M7.94,39.25c-0.01,0-0.03-0.01-0.04-0.05c-0.04-0.08-0.07-0.13-0.1-0.18c-0.03-0.04-0.05-0.07-0.08-0.14
		c-0.04-0.08-0.07-0.13-0.1-0.18c-0.05-0.07-0.09-0.13-0.14-0.2c0.43,0.13,0.68-0.19,0.98-0.35c0.47-0.24,0.91-0.52,1.4-0.78
		c0.07-0.05,0.1-0.09,0.14-0.14c0,0,0-0.02,0.02-0.03c0.07-0.01,0.12-0.01,0.17-0.01c0.03,0.05,0.06,0.1,0.08,0.18
		c0.04,0.08,0.09,0.13,0.13,0.19c0.14,0.29,0.28,0.58,0.42,0.9c0.01,0.08,0.03,0.14,0.04,0.19c-0.02,0.19-0.03,0.38-0.08,0.59
		c-0.15,0.03-0.22,0.08-0.15,0.21c-0.44,0.31-0.84,0.17-1.24-0.18c-0.19,0.46-0.37,0.89-0.55,1.32c-0.29-0.06-0.47-0.39-0.32-0.67
		c0.16-0.31,0.33-0.62,0.51-0.93c0.1-0.17,0.03-0.3-0.08-0.44c-0.27,0.16-0.53,0.31-0.79,0.47c-0.06,0.04-0.08,0.12-0.14,0.2
		C7.98,39.25,7.96,39.25,7.94,39.25 M10.28,38c0.07-0.13,0-0.14-0.14-0.12C9.92,38,9.7,38.12,9.48,38.25
		c-0.07,0.04-0.16,0.13-0.15,0.19c0.03,0.3,0.44,0.62,0.78,0.63c0.07-0.05,0.14-0.1,0.21-0.17c0.01-0.01,0.02-0.02,0.06-0.03
		c0.24-0.16,0.24-0.26,0.02-0.43C10.36,38.3,10.31,38.16,10.28,38z"/>
	<path class="st0" d="M48.1,36.41c-0.03,0-0.07,0-0.13,0c-0.07-0.02-0.11-0.02-0.15-0.03c-0.24-0.06-0.48-0.34-0.5-0.6
		c-0.03-0.47,0.03-0.92,0.32-1.31c0.11-0.15,0.17-0.3-0.01-0.53c0.39,0.12,0.7,0.22,1.01,0.31c0,0.02,0.01,0.04,0.01,0.06
		c-0.05,0.02-0.1,0.03-0.18,0.04c-0.07,0.01-0.1,0.04-0.14,0.06c-0.27,0.19-0.47,0.44-0.6,0.76c-0.02,0.06-0.03,0.1-0.03,0.15
		c0.01,0.11,0.03,0.22,0.04,0.35c0.05,0.07,0.09,0.11,0.14,0.14c0.26,0.04,0.4-0.14,0.54-0.31c0.25-0.3,0.49-0.62,0.78-0.89
		c0.2-0.19,0.49-0.24,0.76-0.1c0.29,0.15,0.4,0.42,0.42,0.73c0.04,0.47-0.13,0.89-0.36,1.29c-0.09,0.16-0.19,0.3-0.03,0.49
		c-0.01,0.01-0.03,0.02-0.04,0.03c-0.31-0.1-0.63-0.2-0.94-0.3c0-0.02,0-0.04,0-0.07c0.43-0.12,0.69-0.41,0.86-0.8
		c0.07-0.17,0.1-0.36,0.1-0.55c0-0.09-0.09-0.22-0.17-0.26c-0.08-0.03-0.24,0-0.3,0.06c-0.18,0.18-0.32,0.4-0.49,0.59
		c-0.21,0.25-0.38,0.55-0.76,0.63C48.18,36.38,48.14,36.4,48.1,36.41z"/>
	<path class="st0" d="M38.29,49.05c-0.51,0.17-1.04-0.05-1.28-0.53c-0.19-0.38-0.37-0.77-0.55-1.19c-0.02-0.05-0.03-0.07-0.05-0.1
		c-0.12-0.1-0.23-0.21-0.38-0.33c0.1-0.05,0.22-0.11,0.38-0.17c0.11-0.05,0.2-0.09,0.28-0.14c0.06-0.03,0.12-0.07,0.18-0.1
		c0.02,0.01,0.03,0.02,0.05,0.03c-0.03,0.09-0.06,0.17-0.09,0.29c0.02,0.05,0.03,0.07,0.05,0.1c0.19,0.38,0.38,0.75,0.56,1.13
		c0.16,0.33,0.33,0.65,0.77,0.65c0.51,0,0.84-0.53,0.62-0.99c-0.2-0.4-0.4-0.79-0.6-1.19c-0.15-0.3-0.15-0.3-0.46-0.45
		c0.31-0.16,0.6-0.3,0.88-0.44c0.02,0.01,0.03,0.02,0.05,0.03c-0.15,0.25-0.01,0.44,0.09,0.64c0.15,0.31,0.29,0.63,0.47,0.93
		c0.43,0.71,0.05,1.46-0.64,1.69C38.49,48.96,38.39,49.01,38.29,49.05z"/>
	<path class="st0" d="M33.49,50.6c-0.06-0.16-0.12-0.31-0.21-0.43c-0.03-0.04-0.14-0.06-0.2-0.05c-0.21,0.03-0.43,0.07-0.64,0.14
		c-0.07,0.02-0.16,0.12-0.17,0.2c-0.02,0.18-0.09,0.4,0.19,0.49c-0.01,0.02-0.01,0.04-0.02,0.06c-0.33,0.06-0.65,0.12-0.98,0.19
		c-0.02-0.02-0.04-0.05-0.06-0.07c0.39-0.16,0.3-0.5,0.35-0.78c0.09-0.61,0.16-1.22,0.23-1.83c0.02-0.14,0.08-0.31-0.16-0.42
		c0.25-0.06,0.46-0.12,0.67-0.16c0.13-0.03,0.2,0.03,0.27,0.15c0.41,0.74,0.82,1.48,1.25,2.22c0.07,0.12,0.22,0.19,0.37,0.31
		c-0.33,0.07-0.64,0.13-0.95,0.2c-0.01-0.02-0.02-0.04-0.03-0.05C33.43,50.7,33.46,50.66,33.49,50.6 M32.81,49.27
		c-0.1-0.18-0.2-0.35-0.33-0.58c-0.03,0.24-0.06,0.41-0.08,0.58c-0.02,0.18-0.02,0.35-0.03,0.56c0.22-0.04,0.43-0.08,0.67-0.13
		C32.96,49.56,32.89,49.43,32.81,49.27z"/>
	<path class="st2" d="M16.74,44.68c0.57,0.4,0.8,1.12,0.56,1.82c-0.17,0.51-0.67,0.86-1.22,0.92c-0.67,0.07-1.18-0.19-1.53-0.73
		c-0.31-0.48-0.33-1.01-0.07-1.51c0.26-0.51,0.7-0.78,1.3-0.78C16.12,44.4,16.45,44.46,16.74,44.68 M16.49,44.91
		c-0.38-0.23-0.75-0.2-1.1,0.06c-0.27,0.21-0.46,0.47-0.56,0.8c-0.16,0.5,0.11,1.05,0.61,1.22c0.34,0.12,0.63,0.01,0.91-0.18
		c0.41-0.28,0.72-0.91,0.58-1.32C16.85,45.29,16.65,45.12,16.49,44.91z"/>
	<path class="st0" d="M25.01,51.11c-0.64-0.02-1.24-0.56-1.37-1.18c-0.21-1.04,0.63-1.88,1.57-1.83c0.68,0.04,1.16,0.38,1.4,1.03
		c0.21,0.56,0.09,1.08-0.3,1.51C25.98,51.01,25.54,51.19,25.01,51.11 M24.39,50.43c0.3,0.37,0.71,0.48,1.08,0.29
		c0.61-0.3,0.86-1.12,0.55-1.77c-0.28-0.59-1.11-0.73-1.56-0.17C24.13,49.19,24,49.85,24.39,50.43z"/>
	<path class="st1" d="M45.35,40.44c0.11,0.07,0.2,0.13,0.33,0.21c0.19-0.31,0.55-0.53,0.46-1.04c0.22,0.16,0.41,0.29,0.66,0.46
		c-0.52,0.07-0.55,0.54-0.84,0.78c0.33,0.23,0.64,0.45,0.96,0.68c0.23-0.33,0.48-0.63,0.67-0.97c0.06-0.1-0.01-0.28-0.02-0.47
		c0.17,0.11,0.36,0.23,0.55,0.35c-0.47,0.66-0.92,1.31-1.37,1.95c-0.02,0-0.04,0.01-0.06,0.01c0.08-0.4-0.25-0.47-0.45-0.63
		c-0.46-0.35-0.95-0.66-1.42-1c-0.14-0.1-0.28-0.22-0.48-0.03c0-0.03-0.01-0.05-0.01-0.08c0.02-0.06,0.04-0.12,0.07-0.17
		c0.39-0.55,0.78-1.11,1.16-1.66c0.06-0.09,0.13-0.11,0.22-0.04c0.13,0.1,0.27,0.2,0.41,0.3c-0.03,0.04-0.05,0.06-0.05,0.06
		c-0.29-0.08-0.43,0.08-0.57,0.3c-0.16,0.25-0.34,0.48-0.51,0.73C45.14,40.28,45.24,40.36,45.35,40.44z"/>
	<path class="st1" d="M8.99,34.76c0.02-0.07,0.04-0.12,0.06-0.17c0.02,0,0.04,0,0.05,0c0.21,0.5,0.41,1.01,0.62,1.51
		c0.07,0.17,0.15,0.34,0.22,0.52c0.05,0.11,0.03,0.2-0.1,0.24c-0.15,0.05-0.3,0.1-0.48,0.11c0.02-0.03,0.03-0.07,0.06-0.1
		c0.11-0.1,0.15-0.21,0.08-0.36c-0.15-0.34-0.28-0.68-0.42-1.04c-0.21,0.08-0.4,0.16-0.59,0.25c-0.05,0.02-0.1,0.12-0.08,0.16
		c0.08,0.22,0.16,0.44,0.27,0.64c0.04,0.08,0.14,0.12,0.27,0.21c-0.23,0.1-0.43,0.18-0.69,0.29c0.2-0.46-0.12-0.75-0.22-1.12
		c-0.37,0.15-0.72,0.29-1.08,0.44c0.15,0.36,0.27,0.71,0.44,1.04c0.06,0.11,0.23,0.17,0.39,0.27c-0.12,0.16-0.37,0.15-0.57,0.26
		c-0.29-0.73-0.58-1.44-0.86-2.14c-0.01-0.02,0-0.04,0.01-0.09c0.39,0.24,0.68-0.07,0.99-0.18c0.48-0.16,0.95-0.37,1.42-0.57
		C8.85,34.91,8.92,34.84,8.99,34.76z"/>
	<path class="st0" d="M21.48,47.43c0.39-0.1,0.75-0.06,1.1,0.09c0.4,0.16,0.67,0.46,0.85,0.88c-0.21,0.09-0.4,0.18-0.59,0.26
		c-0.02-0.01-0.03-0.02-0.05-0.03c0.16-0.27,0.1-0.5-0.14-0.67c-0.33-0.23-0.69-0.32-1.08-0.13c-0.34,0.16-0.71,0.74-0.66,1.12
		c0.06,0.48,0.31,0.92,0.83,1.04c0.17,0.04,0.36,0.02,0.53-0.03c0.3-0.08,0.39-0.42,0.06-0.63c-0.03-0.02-0.05-0.03-0.15-0.09
		c0.11-0.03,0.17-0.07,0.22-0.06c0.2,0.05,0.4,0.13,0.6,0.18c0.13,0.03,0.16,0.1,0.13,0.22c-0.05,0.16-0.06,0.34-0.15,0.47
		c-0.11,0.15-0.28,0.32-0.44,0.35c-0.85,0.13-1.71-0.09-2.08-1.07C20.15,48.53,20.57,47.72,21.48,47.43z"/>
	<path class="st2" d="M42.71,42.43c0.11-0.11,0.2-0.21,0.29-0.31c-0.04,0.32,0.21,0.37,0.39,0.45c0.37,0.17,0.74,0.32,1.15,0.45
		c-0.16-0.31-0.33-0.61-0.5-0.92c-0.02-0.05-0.06-0.09-0.08-0.13c-0.1-0.19-0.16-0.42-0.48-0.39c0.23-0.25,0.45-0.5,0.68-0.74
		c0.04,0.03,0.06,0.04,0.06,0.05c-0.14,0.36,0.08,0.63,0.23,0.92c0.27,0.53,0.56,1.04,0.85,1.57c0.05,0.1,0.13,0.19,0.16,0.29
		c0.02,0.08-0.01,0.19-0.05,0.25c-0.03,0.04-0.15,0.04-0.21,0.02c-0.77-0.33-1.54-0.69-2.32-1.01c-0.16-0.07-0.37-0.03-0.57-0.05
		C42.37,42.7,42.57,42.6,42.71,42.43z"/>
	<path class="st0" d="M49.38,27.56c0.34,0.17,0.66,0.33,0.99,0.49c0.32,0.16,0.65,0.1,0.98,0.08c0.09-0.01,0.17-0.14,0.31-0.26
		c-0.02,0.38-0.04,0.7-0.06,1.02c-0.45-0.32-0.91-0.24-1.36-0.07c-0.41,0.16-0.8,0.35-1.19,0.55c-0.15,0.08-0.27,0.21-0.42,0.32
		c0-0.3,0-0.61,0-0.85c0.18-0.03,0.31-0.04,0.44-0.08c0.26-0.1,0.51-0.21,0.78-0.33c-0.39-0.32-0.94-0.52-1.18-0.41
		c0-0.32,0-0.63,0-0.92C48.9,27.25,49.13,27.4,49.38,27.56z"/>
	<path class="st0" d="M48.83,30.61c-0.04,0.22,0.06,0.27,0.24,0.29c0.47,0.05,0.94,0.13,1.4,0.2c0.21,0.03,0.43,0.09,0.64,0.1
		c0.09,0,0.18-0.1,0.34-0.19c-0.05,0.37-0.1,0.69-0.15,1.01c-0.02,0-0.04,0.01-0.07,0.01c-0.07-0.22-0.23-0.26-0.44-0.28
		c-0.65-0.08-1.3-0.2-1.96-0.3c-0.04-0.01-0.09,0-0.14,0c0,0.32-0.24,0.66,0.19,0.9c-0.01,0.02-0.03,0.03-0.04,0.05
		c-0.18-0.02-0.36-0.03-0.54-0.07c-0.04-0.01-0.08-0.13-0.07-0.18c0.1-0.68,0.2-1.36,0.31-2.04c0.01-0.07,0.04-0.14,0.07-0.23
		c0.2,0.02,0.4,0.05,0.6,0.07c0.02,0.02,0.03,0.03,0.05,0.05C48.95,30.09,48.84,30.31,48.83,30.61z"/>
	<path class="st0" d="M29.36,51.31c-0.77,0.01-1.52,0.01-2.3,0.01c0.33-0.42,0.13-0.9,0.17-1.35c0.03-0.31,0.01-0.62,0-0.93
		c0-0.22,0.06-0.46-0.16-0.65c0.3,0,0.61,0,0.95,0c-0.31,0.32-0.17,0.7-0.18,1.05c-0.02,0.51-0.01,1.03-0.01,1.57
		c0.4,0,0.78,0.01,1.16-0.01c0.08,0,0.16-0.1,0.22-0.16c0.04-0.04,0.06-0.1,0.09-0.15c0.02,0,0.04,0.01,0.07,0.01
		C29.38,50.91,29.38,51.1,29.36,51.31z"/>
	<path class="st1" d="M42.64,44.85c-0.32-0.36-0.61-0.72-0.94-1.06c-0.07-0.07-0.21-0.07-0.37-0.12c0.26-0.23,0.5-0.43,0.78-0.67
		c0,0.56,0.44,0.77,0.7,1.11c0.25,0.32,0.52,0.63,0.79,0.92c0.1,0.1,0.25,0.16,0.42,0.26c-0.18,0.21-0.43,0.41-0.71,0.64
		C43.32,45.39,42.91,45.17,42.64,44.85z"/>
	<path class="st0" d="M50.86,34.09c-0.05,0.01-0.09,0.03-0.12,0.01c-0.1-0.06-0.19-0.16-0.3-0.19c-0.67-0.18-1.33-0.35-2.01-0.5
		c-0.15-0.03-0.31,0.03-0.5,0.05c0.08-0.3,0.16-0.61,0.24-0.92c0.02-0.01,0.04-0.01,0.07-0.02c0.08,0.29,0.31,0.3,0.53,0.35
		c0.55,0.13,1.09,0.27,1.64,0.41c0.22,0.06,0.43,0.15,0.62-0.07c0.01,0.01,0.03,0.03,0.04,0.04C51,33.52,50.94,33.8,50.86,34.09z"/>
	<path class="st0" d="M30.5,48.54c0.05,0.68,0.11,1.35,0.18,2.02c0.02,0.22,0,0.47,0.27,0.58c0,0.02,0,0.04-0.01,0.06
		c-0.32,0.03-0.64,0.07-0.97,0.1c-0.01-0.01-0.03-0.03-0.04-0.04c0.38-0.32,0.13-0.71,0.14-1.07c0.01-0.4-0.09-0.81-0.11-1.21
		c-0.01-0.24-0.02-0.46-0.24-0.66c0.31-0.03,0.63-0.07,0.99-0.1C30.61,48.35,30.56,48.44,30.5,48.54z"/>
	<path class="st0" d="M8.08,28.09c-0.01,0.13-0.01,0.22-0.15,0.1c-0.06-0.06-0.15-0.11-0.23-0.12c-0.76-0.02-1.52-0.04-2.27-0.04
		c-0.11,0-0.22,0.1-0.34,0.16c0-0.31,0-0.62,0-0.9c0.86,0.29,1.75,0.15,2.62,0.17c0.11,0,0.22-0.1,0.38-0.18
		C8.08,27.55,8.08,27.81,8.08,28.09z"/>
	<path class="st1" d="M27.97,45.84c-0.23,0.56-0.66,0.67-1.3,0.59c0-0.11,0-0.21,0-0.35c0.25,0.05,0.5,0.16,0.72-0.03
		c0.09-0.08,0.16-0.19,0.28-0.33c-0.19,0-0.3,0-0.41,0c-0.37,0-0.62-0.22-0.65-0.54c-0.04-0.48,0.27-0.69,0.58-0.74
		c0.5-0.09,0.95,0.38,0.89,0.82C28.04,45.45,28,45.64,27.97,45.84 M27.13,44.77c-0.17,0.17-0.14,0.38-0.04,0.56
		c0.04,0.08,0.18,0.15,0.27,0.15c0.08,0,0.2-0.1,0.22-0.18c0.04-0.12,0.03-0.27,0-0.4C27.52,44.71,27.36,44.66,27.13,44.77z"/>
	<path class="st0" d="M28.91,46.45c-0.29,0.02-0.54-0.04-0.75-0.24c0.05-0.15,0.13-0.18,0.27-0.1c0.24,0.13,0.46,0.1,0.6-0.05
		c0.12-0.12,0.15-0.26,0.09-0.43c-0.07-0.19-0.23-0.23-0.39-0.26c-0.11-0.02-0.24,0.01-0.37,0.02c0-0.3,0-0.61,0-0.93
		c0.35,0,0.7,0,1.06,0c0,0.13,0,0.25,0,0.32c-0.26-0.03-0.51-0.06-0.79-0.09c0,0.17,0,0.29,0,0.38c0.21,0.04,0.42,0.05,0.61,0.13
		c0.25,0.1,0.37,0.37,0.33,0.66c-0.03,0.25-0.26,0.48-0.54,0.55C29,46.42,28.96,46.43,28.91,46.45z"/>
	<path class="st0" d="M30.05,44.72c-0.13,0.03-0.24,0.07-0.36,0.11c0-0.11,0-0.23,0-0.37c0.44,0,0.88,0,1.36,0
		c-0.02,0.09-0.03,0.18-0.05,0.26c-0.17,0.5-0.34,1.01-0.51,1.51c-0.04,0.12-0.08,0.2-0.23,0.18c-0.13-0.02-0.26,0-0.43,0
		c0.27-0.57,0.52-1.11,0.8-1.69C30.41,44.72,30.24,44.72,30.05,44.72z"/>
	<path class="st0" d="M44.57,14.01c0.11,0.02,0.19,0.03,0.27,0.05c0.01,0.26-0.11,0.34-0.33,0.32c-0.1-0.01-0.2,0.04-0.3,0.06
		c0,0.02,0,0.04,0,0.06c0.09,0.05,0.18,0.11,0.33,0.19c-0.14,0.06-0.23,0.1-0.32,0.12c-0.17,0.04-0.35,0.06-0.52,0.11
		c-0.18,0.06-0.34,0.06-0.47-0.1c-0.14-0.17-0.06-0.35,0.03-0.51c0.18-0.32,0.37-0.4,0.74-0.35C44.19,13.99,44.37,13.99,44.57,14.01
		z"/>
	<path class="st0" d="M25.91,44.61c0.1-0.22,0.28-0.16,0.47-0.15c0,0.49-0.01,0.97,0,1.45c0,0.16,0.04,0.31,0.07,0.48
		c-0.17,0-0.38,0-0.56,0c0.03-0.13,0.07-0.25,0.07-0.37c0.01-0.36,0-0.73,0-1.08c-0.03-0.01-0.05-0.02-0.06-0.02
		c-0.08,0-0.16,0.01-0.24,0.02c0.04-0.08,0.07-0.17,0.12-0.24C25.81,44.67,25.86,44.65,25.91,44.61z"/>
	<path class="st2" d="M20.16,11.5c-0.39-0.08-0.54,0.15-0.46,0.69c-0.31,0.07-0.45,0-0.57-0.32c0.32-0.08,0.48-0.3,0.55-0.63
		c0.05-0.22,0.27-0.22,0.45-0.2c0.18,0.01,0.29,0.13,0.31,0.3C20.47,11.52,20.39,11.56,20.16,11.5z"/>
	<path class="st1" d="M18.28,7.88c0.09-0.08,0.16-0.15,0.24-0.22c0.06,0.2,0.11,0.37,0.17,0.58c-0.14,0.07-0.32,0.2-0.55,0.12
		c-0.07-0.03-0.15-0.11-0.15-0.17c0-0.08,0.08-0.16,0.13-0.22C18.16,7.92,18.22,7.91,18.28,7.88z"/>
	<path class="st1" d="M32.57,45.05c-0.13,0.18-0.3,0.2-0.45,0.08c-0.12-0.09-0.17-0.22-0.08-0.37c0.1-0.17,0.26-0.16,0.39-0.12
		c0.07,0.02,0.11,0.16,0.15,0.25C32.6,44.94,32.58,44.99,32.57,45.05z"/>
	<path class="st3" d="M24.25,44.63c0.33,0,0.51,0.14,0.41,0.34c-0.05,0.1-0.18,0.2-0.29,0.22c-0.07,0.02-0.23-0.08-0.26-0.16
		C24.08,44.91,24.03,44.72,24.25,44.63z"/>
	<path class="st0" d="M39.32,7.99c0.06,0.16-0.02,0.26-0.19,0.31C39.18,8.2,39.25,8.1,39.32,7.99z"/>
	<path class="st0" d="M38.13,10.96c0.11,0.09,0.11,0.19-0.01,0.3C38.12,11.17,38.12,11.07,38.13,10.96z"/>
	<path class="st0" d="M38.31,49.05c0.08-0.05,0.18-0.09,0.29-0.13C38.52,48.97,38.42,49.01,38.31,49.05z"/>
	<path class="st0" d="M38.34,11.97c0.09,0,0.19,0,0.3,0.02C38.56,12,38.45,11.99,38.34,11.97z"/>
	<path class="st0" d="M10.64,39.44c-0.08-0.12-0.01-0.17,0.12-0.19C10.73,39.31,10.69,39.37,10.64,39.44z"/>
	<path class="st0" d="M38.51,10.39c-0.06-0.07-0.12-0.15-0.17-0.25C38.4,10.21,38.46,10.29,38.51,10.39z"/>
	<path class="st0" d="M10.18,37.17c-0.05,0.02-0.09,0.02-0.16,0.02C10,37.14,10,37.08,10,36.95C10.09,37.06,10.13,37.11,10.18,37.17
		z"/>
	<path class="st0" d="M10.4,37.54c-0.04-0.04-0.09-0.09-0.13-0.16C10.31,37.43,10.35,37.48,10.4,37.54z"/>
	<path class="st0" d="M40.01,9.18c-0.04,0.07-0.09,0.14-0.16,0.21C39.89,9.32,39.94,9.25,40.01,9.18z"/>
	<path class="st0" d="M36.68,46.59c-0.07,0.04-0.15,0.09-0.24,0.14C36.5,46.68,36.58,46.64,36.68,46.59z"/>
	<path class="st0" d="M7.62,38.72c0.03,0.04,0.06,0.09,0.09,0.16C7.68,38.83,7.65,38.78,7.62,38.72z"/>
	<path class="st0" d="M9.98,37.24c-0.03,0.04-0.06,0.09-0.11,0.13C9.89,37.33,9.93,37.29,9.98,37.24z"/>
	<path class="st0" d="M39.01,11.39c-0.05-0.02-0.11-0.06-0.17-0.1C38.89,11.31,38.95,11.35,39.01,11.39z"/>
	<path class="st0" d="M47.87,35.81c-0.04-0.03-0.09-0.06-0.13-0.11C47.78,35.72,47.83,35.76,47.87,35.81z"/>
	<path class="st0" d="M19.88,47.29c-0.01,0.05-0.03,0.1-0.07,0.17C19.82,47.4,19.85,47.35,19.88,47.29z"/>
	<path class="st0" d="M10.86,38.64c-0.02-0.04-0.03-0.09-0.04-0.16C10.83,38.52,10.85,38.57,10.86,38.64z"/>
	<path class="st0" d="M39.91,8.25c0.01-0.04,0.03-0.08,0.07-0.13C39.96,8.16,39.94,8.21,39.91,8.25z"/>
	<path class="st0" d="M38.59,9.08c-0.01,0.04-0.03,0.08-0.07,0.13C38.53,9.17,38.56,9.13,38.59,9.08z"/>
	<path class="st0" d="M48.35,34.41c0.03-0.02,0.06-0.04,0.11-0.06C48.43,34.37,48.4,34.39,48.35,34.41z"/>
	<path class="st0" d="M48.12,36.41c0.02-0.02,0.06-0.03,0.11-0.04C48.21,36.39,48.17,36.4,48.12,36.41z"/>
	<path class="st0" d="M7.8,39.04c0.03,0.04,0.06,0.09,0.09,0.16C7.86,39.16,7.83,39.1,7.8,39.04z"/>
	<path class="st0" d="M38.9,9.35c0.02-0.04,0.06-0.08,0.11-0.13C38.99,9.26,38.95,9.3,38.9,9.35z"/>
	<path class="st0" d="M47.71,35.32c-0.01-0.03,0-0.07,0.01-0.12C47.73,35.23,47.73,35.27,47.71,35.32z"/>
	<path class="st0" d="M47.84,36.39c0.03-0.01,0.07,0,0.12,0.01C47.93,36.41,47.88,36.4,47.84,36.39z"/>
	<path class="st0" d="M39.26,11.81c0.02-0.03,0.06-0.05,0.1-0.08C39.34,11.76,39.31,11.79,39.26,11.81z"/>
	<path class="st0" d="M20.07,46.6c-0.01,0.03-0.03,0.05-0.06,0.09C20.02,46.67,20.04,46.63,20.07,46.6z"/>
	<path class="st0" d="M38.97,9.52c-0.02-0.01-0.05-0.04-0.08-0.07C38.91,9.46,38.94,9.48,38.97,9.52z"/>
	<path class="st0" d="M7.94,39.26c0.02-0.01,0.04-0.01,0.08-0.02c0.01,0.03,0,0.05-0.01,0.08C7.99,39.31,7.96,39.29,7.94,39.26z"/>
	<path class="st0" d="M39.98,7.51c-0.01-0.01-0.03-0.04-0.04-0.07C39.95,7.46,39.97,7.48,39.98,7.51z"/>
	<path class="st0" d="M36.88,46.9c-0.01-0.01-0.03-0.04-0.04-0.07C36.85,46.84,36.86,46.86,36.88,46.9z"/>
	<path class="st0" d="M20.68,47.02c0-0.03,0.01-0.05,0.03-0.09C20.71,46.96,20.7,46.99,20.68,47.02z"/>
	<path class="st0" d="M36.42,47.25c0.01,0.01,0.03,0.04,0.04,0.07C36.45,47.31,36.43,47.28,36.42,47.25z"/>
	<path class="st0" d="M19.65,47.74c0,0.02-0.01,0.05-0.03,0.08C19.63,47.8,19.63,47.77,19.65,47.74z"/>
	<path class="st0" d="M39.56,7.57c0,0.01-0.01,0.02-0.02,0.04C39.53,7.6,39.54,7.59,39.56,7.57z"/>
	<path class="st0" d="M40.11,9.2c-0.01,0-0.01,0-0.02-0.01C40.1,9.17,40.1,9.18,40.11,9.2z"/>
	<path d="M20.97,10.52c-0.02-0.01-0.03-0.03-0.04-0.05c0.02,0,0.04,0,0.06,0.02C20.99,10.5,20.98,10.5,20.97,10.52z"/>
	<path d="M20.43,7.55c0.01-0.02,0.03-0.03,0.05-0.04c0,0.02,0,0.04-0.02,0.06C20.44,7.57,20.44,7.57,20.43,7.55z"/>
	<path d="M19.61,9.46c-0.02,0.01-0.03,0-0.04,0C19.58,9.46,19.6,9.45,19.61,9.46z"/>
	<path d="M29.35,8.07c0.01,0.01,0.01,0.02,0.01,0.04C29.35,8.1,29.35,8.09,29.35,8.07z"/>
	<path d="M13.79,43.86c0.01-0.02,0.03-0.03,0.06-0.04c0,0.02-0.01,0.03-0.02,0.06C13.81,43.88,13.8,43.88,13.79,43.86z"/>
	<path d="M41.55,45.48c0.02,0.01,0.03,0.03,0.04,0.05c-0.02,0-0.04,0-0.06-0.02C41.53,45.5,41.54,45.49,41.55,45.48z"/>
	<path d="M6.7,30.89c-0.01,0.02-0.03,0.03-0.06,0.04c0-0.02,0.01-0.03,0.02-0.06C6.68,30.87,6.69,30.88,6.7,30.89z"/>
	<path class="st0" d="M10.37,38.87c0-0.12,0.02-0.24,0.04-0.38C10.63,38.61,10.62,38.71,10.37,38.87z"/>
	<path class="st0" d="M10.27,38.01c-0.03-0.03-0.06-0.06-0.09-0.11C10.28,37.86,10.35,37.87,10.27,38.01z"/>
	<path class="st0" d="M35.49,21.69c-0.04,0.05-0.08,0.11-0.12,0.11c-0.29-0.01-0.58,0-0.85-0.06c-0.25-0.05-0.38-0.34-0.34-0.66
		c0.03-0.25,0.27-0.44,0.59-0.46c0.17-0.01,0.33,0.01,0.5,0c0.17-0.01,0.23,0.07,0.23,0.23C35.5,21.13,35.5,21.4,35.49,21.69z"/>
	<path class="st1" d="M34.18,32.06c0.1-0.33,0.27-0.46,0.63-0.47c0.15-0.01,0.3,0,0.45,0c0.16,0,0.24,0.07,0.24,0.23
		c0,0.25,0,0.5,0,0.75c0,0.15-0.06,0.22-0.22,0.21c-0.14-0.01-0.29,0.01-0.43,0C34.39,32.71,34.15,32.62,34.18,32.06z"/>
	<path class="st0" d="M20.09,36.08c0.12-0.27,0.36-0.3,0.59-0.34c0.17-0.03,0.35-0.02,0.52,0c0.06,0.01,0.14,0.09,0.15,0.15
		c0.01,0.3,0.01,0.59,0,0.89c0,0.05-0.08,0.13-0.11,0.13c-0.28-0.01-0.58-0.01-0.85-0.08C20.08,36.75,20.01,36.51,20.09,36.08z"/>
	<path class="st0" d="M20.11,29.85c-0.03-0.12-0.07-0.24-0.05-0.34c0.06-0.35,0.17-0.45,0.54-0.48c0.19-0.02,0.37-0.04,0.56-0.04
		c0.13,0,0.21,0.06,0.2,0.21c-0.01,0.26-0.01,0.52,0,0.77c0,0.14-0.05,0.21-0.2,0.2c-0.23-0.02-0.47,0-0.69-0.05
		C20.34,30.08,20.23,29.95,20.11,29.85z"/>
	<path class="st0" d="M23.12,21.82c0.69,0.37,0.64,1.18,0.31,1.61c-0.15,0.19-0.43,0.28-0.67,0.38c-0.14,0.06-0.2-0.09-0.2-0.21
		c-0.01-0.57-0.01-1.14,0-1.71c0-0.16,0.1-0.25,0.28-0.18C22.92,21.76,23.01,21.78,23.12,21.82z"/>
	<path class="st0" d="M21.29,19.25c-0.32-0.02-0.62-0.03-0.91-0.09c-0.22-0.04-0.34-0.24-0.34-0.49c0-0.23,0.14-0.5,0.34-0.53
		c0.28-0.04,0.57-0.05,0.85-0.06c0.04,0,0.11,0.06,0.11,0.08C21.34,18.52,21.32,18.88,21.29,19.25z"/>
	<path class="st0" d="M20.95,21.58c0.07,0,0.13,0.01,0.18,0c0.18-0.02,0.25,0.06,0.23,0.24c-0.01,0.07,0,0.15,0,0.23
		c-0.01,0.56,0.12,0.5-0.54,0.49c-0.16,0-0.32-0.06-0.48-0.09c-0.2-0.03-0.29-0.19-0.29-0.35c-0.01-0.17,0.04-0.36,0.24-0.41
		C20.5,21.64,20.71,21.62,20.95,21.58z"/>
	<path class="st0" d="M20.24,23.81c-0.17-0.12-0.23-0.25-0.17-0.46c0.05-0.2,0.18-0.3,0.35-0.33c0.24-0.04,0.49-0.05,0.74-0.06
		c0.12,0,0.2,0.05,0.19,0.19c-0.01,0.2,0.01,0.4-0.01,0.59c-0.01,0.06-0.1,0.17-0.15,0.16C20.89,23.89,20.57,23.85,20.24,23.81z"/>
	<path class="st2" d="M27.12,17.14c0.24-0.26,0.9-0.42,1.18-0.29c0.04,0.02,0.08,0.09,0.08,0.14c0.01,0.29,0.01,0.58,0,0.86
		c0,0.06-0.11,0.16-0.16,0.16c-0.3-0.02-0.6-0.05-0.89-0.11c-0.19-0.04-0.31-0.35-0.26-0.57C27.08,17.28,27.1,17.22,27.12,17.14z"/>
</g>
</svg>
