<?xml version="1.0" encoding="UTF-8"?>
<svg id="Layer_1" xmlns="http://www.w3.org/2000/svg" version="1.1" viewBox="0 0 612 792">
  <!-- Generator: Adobe Illustrator 29.3.1, SVG Export Plug-In . SVG Version: 2.1.0 Build 151)  -->
  <defs>
    <style>
      .st0 {
        fill: #181c62;
      }

      .st1 {
        fill: #d71440;
      }
    </style>
  </defs>
  <g>
    <g>
      <circle class="st1" cx="249.91" cy="117.14" r="43.2"/>
      <circle class="st1" cx="354.15" cy="138.85" r="33.93"/>
      <circle class="st1" cx="425.62" cy="195.05" r="23.68"/>
      <circle class="st1" cx="463.47" cy="255.55" r="14.18"/>
      <circle class="st1" cx="477.65" cy="301.2" r="9.92"/>
    </g>
    <circle class="st1" cx="145.68" cy="138.85" r="33.93"/>
    <circle class="st1" cx="74.21" cy="195.05" r="23.68"/>
    <circle class="st1" cx="36.36" cy="255.55" r="14.18"/>
    <circle class="st1" cx="22.18" cy="301.2" r="9.92"/>
  </g>
  <g>
    <g>
      <circle class="st0" cx="61.92" cy="419.63" r="43.2"/>
      <circle class="st0" cx="83.64" cy="315.39" r="33.93"/>
      <circle class="st0" cx="139.83" cy="243.92" r="23.68"/>
      <circle class="st0" cx="200.33" cy="206.07" r="14.18"/>
      <circle class="st0" cx="245.98" cy="191.89" r="9.92"/>
    </g>
    <circle class="st0" cx="83.64" cy="523.86" r="33.93"/>
    <circle class="st0" cx="139.83" cy="595.33" r="23.68"/>
    <circle class="st0" cx="200.33" cy="633.18" r="14.18"/>
    <circle class="st0" cx="245.98" cy="647.36" r="9.92"/>
  </g>
  <g>
    <g>
      <circle class="st1" cx="368.34" cy="605.45" r="43.2"/>
      <circle class="st1" cx="264.1" cy="583.73" r="33.93"/>
      <circle class="st1" cx="192.63" cy="527.54" r="23.68"/>
      <circle class="st1" cx="154.78" cy="467.04" r="14.18"/>
      <circle class="st1" cx="140.6" cy="421.39" r="9.92"/>
    </g>
    <circle class="st1" cx="472.57" cy="583.73" r="33.93"/>
    <circle class="st1" cx="544.04" cy="527.54" r="23.68"/>
    <circle class="st1" cx="581.89" cy="467.04" r="14.18"/>
    <circle class="st1" cx="596.07" cy="421.39" r="9.92"/>
  </g>
  <g>
    <g>
      <path class="st0" d="M557.91,261.76c-23.86,0-43.2,19.34-43.2,43.2s19.34,43.2,43.2,43.2c23.86,0,43.2-19.34,43.2-43.2s-19.34-43.2-43.2-43.2Z"/>
      <circle class="st0" cx="536.2" cy="200.72" r="33.93"/>
      <circle class="st0" cx="480.01" cy="129.25" r="23.68"/>
      <path class="st0" d="M419.51,77.22c-7.83,0-14.18,6.35-14.18,14.18,0,7.83,6.35,14.18,14.18,14.18,7.83,0,14.18-6.35,14.18-14.18s-6.35-14.18-14.18-14.18Z"/>
      <path class="st0" d="M373.85,67.3c-5.48,0-9.92,4.44-9.92,9.92s4.44,9.92,9.92,9.92c5.48,0,9.92-4.44,9.92-9.92s-4.44-9.92-9.92-9.92Z"/>
    </g>
    <circle class="st0" cx="536.2" cy="409.2" r="33.93"/>
    <circle class="st0" cx="480.01" cy="480.66" r="23.68"/>
    <circle class="st0" cx="419.51" cy="518.52" r="14.18"/>
    <circle class="st0" cx="373.85" cy="532.69" r="9.92"/>
  </g>
</svg>